<mxfile host="Electron" agent="Mozilla/5.0 (Macintosh; Intel Mac OS X 10_15_7) AppleWebKit/537.36 (KHTML, like Gecko) draw.io/25.0.2 Chrome/128.0.6613.186 Electron/32.2.5 Safari/537.36" version="25.0.2">
  <diagram id="prtHgNgQTEPvFCAcTncT" name="Page-1">
    <mxGraphModel dx="1238" dy="884" grid="1" gridSize="10" guides="1" tooltips="1" connect="1" arrows="1" fold="1" page="0" pageScale="1" pageWidth="827" pageHeight="1169" math="0" shadow="0">
      <root>
        <mxCell id="0" />
        <mxCell id="1" parent="0" />
        <mxCell id="FQCKP3OQzJxXeX6VMg1W-8" style="edgeStyle=orthogonalEdgeStyle;rounded=0;orthogonalLoop=1;jettySize=auto;html=1;exitX=1;exitY=0.5;exitDx=0;exitDy=0;entryX=0;entryY=0.5;entryDx=0;entryDy=0;" edge="1" parent="1" source="dNxyNK7c78bLwvsdeMH5-11" target="FQCKP3OQzJxXeX6VMg1W-4">
          <mxGeometry relative="1" as="geometry" />
        </mxCell>
        <mxCell id="dNxyNK7c78bLwvsdeMH5-11" value="数据来源" style="swimlane;html=1;startSize=20;horizontal=1;containerType=tree;glass=0;" parent="1" vertex="1">
          <mxGeometry x="60" y="70" width="300" height="250" as="geometry" />
        </mxCell>
        <mxCell id="FQCKP3OQzJxXeX6VMg1W-1" value="" style="shape=image;verticalLabelPosition=bottom;labelBackgroundColor=default;verticalAlign=top;aspect=fixed;imageAspect=0;image=data:image/vnd.microsoft.icon,AAABAAIAEBAAAAEACABoBQAAJgAAACAgAAABACAAqBAAAI4FAAAoAAAAEAAAACAAAAABAAgAAAAAAAABAAATCwAAEwsAAAABAAAAAQAAEXcAABp0DwAadhAAL4QiADqILgA8jC8AQ402AEWROABHkDsAU5lHAFOaSABJl0kAS5lJAFCaSQBQm0kAVJ5OAGKjVwByqWgAhrZ+AJO/iwCaw5MArMymANfo0QDe7NwA4O3eAOfy4wD3+vUA/P38AP3+/AD+/v4A///+AP///wAAAAAAAAAAAAAAAAAAAAAAAAAAAAAAAAAAAAAAAAAAAAAAAAAAAAAAAAAAAAAAAAAAAAAAAAAAAAAAAAAAAAAAAAAAAAAAAAAAAAAAAAAAAAAAAAAAAAAAAAAAAAAAAAAAAAAAAAAAAAAAAAAAAAAAAAAAAAAAAAAAAAAAAAAAAAAAAAAAAAAAAAAAAAAAAAAAAAAAAAAAAAAAAAAAAAAAAAAAAAAAAAAAAAAAAAAAAAAAAAAAAAAAAAAAAAAAAAAAAAAAAAAAAAAAAAAAAAAAAAAAAAAAAAAAAAAAAAAAAAAAAAAAAAAAAAAAAAAAAAAAAAAAAAAAAAAAAAAAAAAAAAAAAAAAAAAAAAAAAAAAAAAAAAAAAAAAAAAAAAAAAAAAAAAAAAAAAAAAAAAAAAAAAAAAAAAAAAAAAAAAAAAAAAAAAAAAAAAAAAAAAAAAAAAAAAAAAAAAAAAAAAAAAAAAAAAAAAAAAAAAAAAAAAAAAAAAAAAAAAAAAAAAAAAAAAAAAAAAAAAAAAAAAAAAAAAAAAAAAAAAAAAAAAAAAAAAAAAAAAAAAAAAAAAAAAAAAAAAAAAAAAAAAAAAAAAAAAAAAAAAAAAAAAAAAAAAAAAAAAAAAAAAAAAAAAAAAAAAAAAAAAAAAAAAAAAAAAAAAAAAAAAAAAAAAAAAAAAAAAAAAAAAAAAAAAAAAAAAAAAAAAAAAAAAAAAAAAAAAAAAAAAAAAAAAAAAAAAAAAAAAAAAAAAAAAAAAAAAAAAAAAAAAAAAAAAAAAAAAAAAAAAAAAAAAAAAAAAAAAAAAAAAAAAAAAAAAAAAAAAAAAAAAAAAAAAAAAAAAAAAAAAAAAAAAAAAAAAAAAAAAAAAAAAAAAAAAAAAAAAAAAAAAAAAAAAAAAAAAAAAAAAAAAAAAAAAAAAAAAAAAAAAAAAAAAAAAAAAAAAAAAAAAAAAAAAAAAAAAAAAAAAAAAAAAAAAAAAAAAAAAAAAAAAAAAAAAAAAAAAAAAAAAAAAAAAAAAAAAAAAAAAAAAAAAAAAAAAAAAAAAAAAAAAAAAAAAAAAAAAAAAAAAAAAAAAAAAAAAAAAAAAAAAAAAAAAAAAAAAAAAAAAAAAAAAAAAAAAAAAAAAAAAAAAAAAAAAAAAAAAAAAAAAAAAAAAAAAAAAAAAAAAAAAAAAAAAAAAAAAAAAAAAAAAAAAAAAcAAAAAAAAAAAAAAAAAAAcAEBUVFRUVFRUVFRUVFRAAABQfHx8fHx8fHx8fHx8UAAAAAAATHxEBAREfEwAAAgIAAAICGBsBAQEBHxgAAgICAAACCR8cBAYGBB8aCQIAAgAACB8fHx8fHx8fHx8IAAIAAAgfFwUFBQUFBRcfCAACAAAIHxkBAQEBAQEWHwgAAgAACB8XDwsODQwLFx8IAAIAAAgfHR8eHh4eHh8fCAAAAAACAgICAgICAgICAgICAAADEhISEhISEhISEhISAwAACh8fHx8fHx8fHx8fHwoAAAAAAAAAAAAAAAAAAAAAAAcAAAAAAAAAAAAAAAAAAAcAAAAAAAAAAAAAAAAAAAAAAAAAAAAAAAAAAAAAAAAAAAAAAAAAAAAAAAAAAAAAAAAAAAAAAAAAAAAAAAAAAAAAKAAAACAAAABAAAAAAQAgAAAAAAAAEAAAEwsAABMLAAAAAAAAAAAAABF3AEoRdwDnEXcA/xF3AP8RdwD/EXcA/xF3AP8RdwD/EXcA/xF3AP8RdwD/EXcA/xF3AP8RdwD/EXcA/xF3AP8RdwD/EXcA/xF3AP8RdwD/EXcA/xF3AP8RdwD/EXcA/xF3AP8RdwD/EXcA/xF3AP8RdwD/EXcA/xF3AOQRdwBKEXcA5hF3AP8RdwD/EXcA/xF3AP8RdwD/EXcA/xF3AP8RdwD/EXcA/xF3AP8RdwD/EXcA/xF3AP8RdwD/EXcA/xF3AP8RdwD/EXcA/xF3AP8RdwD/EXcA/xF3AP8RdwD/EXcA/xF3AP8RdwD/EXcA/xF3AP8RdwD/EXcA/xF3AOcRdwD/EXcA/xF3AP8RdwD/EXcA/xF3AP8RdwD/EXcA/xF3AP8RdwD/EXcA/xF3AP8RdwD/EXcA/xF3AP8RdwD/EXcA/xF3AP8RdwD/EXcA/xF3AP8RdwD/EXcA/xF3AP8RdwD/EXcA/xF3AP8RdwD/EXcA/xF3AP8RdwD/EXcA/xF3AP8RdwD/EXcA/xF3AP8RdwD/EXcA/xF3AP8RdwD/EXcA/xF3AP8RdwD/EXcA/xF3AP8RdwD/EXcA/xF3AP8RdwD/EXcA/xF3AP8RdwD/EXcA/xF3AP8RdwD/EXcA/xF3AP8RdwD/EXcA/xF3AP8RdwD/EXcA/xF3AP8RdwD/EXcA/xF3AP8RdwD/EXcA/xF3AP8RdwD/EXcA/xF3AP8RdwD/EXcA/xF3AP8RdwD/EXcA/xF3AP8RdwD/EXcA/xF3AP8RdwD/EXcA/xF3AP8RdwD/EXcA/xF3AP8RdwD/EXcA/xF3AP8RdwD/EXcA/xF3AP8RdwD/EXcA/xF3AP8RdwD/EXcA/xF3AP8RdwD/////////////////////////////////////////////////////////////////////////////////////////////////////////////////////////////////EXcA/xF3AP8RdwD/EXcA/xF3AP8RdwD/EXcA/xF3AP////////////////////////////////////////////////////////////////////////////////////////////////////////////////////////////////8RdwD/EXcA/xF3AP8RdwD/EXcA/xF3AP8RdwD/EXcA/////////////////////////////////////////////////////////////////////////////////////////////////////////////////////////////////xF3AP8RdwD/EXcA/xF3AP8RdwD/EXcA/xF3AP8RdwD/EXcA/xF3AP8RdwD/EXcA/xF3AP+RwIn////////////4+/j/GnwK/xF3AP8RdwD/EXcA/xF3AP8afAr/+Pv4////////////kcCJ/xF3AP8RdwD/EXcA/xF3AP8RdwD/EXcA/xF3AP8RdwD/EXcA/xF3AP8RdwD/EXcA/xF3AP8RdwD/EXcA/xF3AP8RdwD/EXcA/9Xn0v///////////77auf8RdwD/EXcA/xF3AP8RdwD/EXcA/xF3AP++2rn////////////V59L/EXcA/xF3AP8RdwD/EXcA/xF3AP8RdwD/EXcA/xF3AP8RdwD/EXcA/xF3AP8RdwD/EXcA/xF3AP8RdwD/EXcA/xF3AP8rhhz/////////////////erNw/xF3AP8RdwD/EXcA/xF3AP8RdwD/EXcA/3qzcP////////////////8rhhz/EXcA/xF3AP8RdwD/EXcA/xF3AP8RdwD/EXcA/xF3AP8RdwD/EXcA/xF3AP8RdwD/EXcA/xF3AP8RdwD/EXcA/26sZP////////////////81jCf/EXcA/xF3AP8RdwD/EXcA/xF3AP8RdwD/NYwn/////////////////26sZP8RdwD/EXcA/xF3AP8RdwD/EXcA/xF3AP8RdwD/EXcA/xF3AP8RdwD/EXcA/xF3AP8RdwD/EXcA/xF3AP8RdwD/vdm4////////////5PDi/y+IIP8viCD/L4gg/y+IIP8viCD/L4gg/y+IIP8viCD/5PDi////////////vdm4/xF3AP8RdwD/EXcA/xF3AP8RdwD/EXcA/xF3AP8RdwD/EXcA/xF3AP8RdwD/EXcA/xF3AP8RdwD/0+bQ/////////////////////////////////////////////////////////////////////////////////////////////////9Pm0P8RdwD/EXcA/xF3AP8RdwD/EXcA/xF3AP8RdwD/EXcA/xF3AP8RdwD/EXcA/xF3AP/T5tD/////////////////////////////////////////////////////////////////////////////////////////////////0+bQ/xF3AP8RdwD/EXcA/xF3AP8RdwD/EXcA/xF3AP8RdwD/EXcA/xF3AP8RdwD/EXcA/9Pm0P///////////9vq2P+Iu4D/iLuA/4i7gP+Iu4D/iLuA/4i7gP+Iu4D/iLuA/4i7gP+Iu4D/iLuA/4i7gP/b6tj////////////T5tD/EXcA/xF3AP8RdwD/EXcA/xF3AP8RdwD/EXcA/xF3AP8RdwD/EXcA/xF3AP8RdwD/0+bQ////////////tdWw/xF3AP8RdwD/EXcA/xF3AP8RdwD/EXcA/xF3AP8RdwD/EXcA/xF3AP8RdwD/EXcA/7XVsP///////////9Pm0P8RdwD/EXcA/xF3AP8RdwD/EXcA/xF3AP8RdwD/EXcA/xF3AP8RdwD/EXcA/xF3AP/T5tD///////////+11bD/EXcA/xF3AP8RdwD/EXcA/xF3AP8RdwD/EXcA/xF3AP8RdwD/EXcA/xF3AP8RdwD/tdWw////////////0+bQ/xF3AP8RdwD/EXcA/xF3AP8RdwD/EXcA/xF3AP8RdwD/EXcA/xF3AP8RdwD/EXcA/9Pm0P///////////7XVsP8RdwD/EXcA/xF3AP8RdwD/EXcA/xF3AP8RdwD/EXcA/xF3AP8RdwD/EXcA/xF3AP+11bD////////////T5tD/EXcA/xF3AP8RdwD/EXcA/xF3AP8RdwD/EXcA/xF3AP8RdwD/EXcA/xF3AP8RdwD/0+bQ////////////tdWw/xF3AP8RdwD/EXcA/xF3AP8RdwD/EXcA/xF3AP8RdwD/EXcA/xF3AP8RdwD/EXcA/7XVsP///////////9Pm0P8RdwD/EXcA/xF3AP8RdwD/EXcA/xF3AP8RdwD/EXcA/xF3AP8RdwD/EXcA/xF3AP/T5tD////////////b6tj/iLuA/4i7gP+Iu4D/iLuA/4i7gP+Iu4D/iLuA/4i7gP+Iu4D/iLuA/4i7gP+Iu4D/2+rY////////////0+bQ/xF3AP8RdwD/EXcA/xF3AP8RdwD/EXcA/xF3AP8RdwD/EXcA/xF3AP8RdwD/EXcA/9Pm0P/////////////////////////////////////////////////////////////////////////////////////////////////T5tD/EXcA/xF3AP8RdwD/EXcA/xF3AP8RdwD/EXcA/xF3AP8RdwD/EXcA/xF3AP8RdwD/0+bQ/////////////////////////////////////////////////////////////////////////////////////////////////9Pm0P8RdwD/EXcA/xF3AP8RdwD/EXcA/xF3AP8RdwD/EXcA/xF3AP8RdwD/EXcA/xF3AP8RdwD/EXcA/xF3AP8RdwD/EXcA/xF3AP8RdwD/EXcA/xF3AP8RdwD/EXcA/xF3AP8RdwD/EXcA/xF3AP8RdwD/EXcA/xF3AP8RdwD/EXcA/xF3AP8RdwD/EXcA/xF3AP8RdwD/EXcA/xF3AP8RdwD/EXcA/xF3AP8RdwD/EXcA/xF3AP8RdwD/EXcA/xF3AP8RdwD/EXcA/xF3AP8RdwD/EXcA/xF3AP8RdwD/EXcA/xF3AP8RdwD/EXcA/xF3AP8RdwD/EXcA/xF3AP8RdwD/EXcA/xF3AP8RdwD/EXcA/xF3AP8RdwD/EXcA/xF3AP8RdwD/EXcA/+Lu4P//////////////////////////////////////////////////////////////////////////////////////////////////////////////////////4u7g/xF3AP8RdwD/EXcA/xF3AP8RdwD/EXcA/xF3AP8RdwD/4u7g///////////////////////////////////////////////////////////////////////////////////////////////////////////////////////i7uD/EXcA/xF3AP8RdwD/EXcA/xF3AP8RdwD/EXcA/xF3AP/i7uD//////////////////////////////////////////////////////////////////////////////////////////////////////////////////////+Lu4P8RdwD/EXcA/xF3AP8RdwD/EXcA/xF3AP8RdwD/EXcA/xF3AP8RdwD/EXcA/xF3AP8RdwD/EXcA/xF3AP8RdwD/EXcA/xF3AP8RdwD/EXcA/xF3AP8RdwD/EXcA/xF3AP8RdwD/EXcA/xF3AP8RdwD/EXcA/xF3AP8RdwD/EXcA/xF3AP8RdwD/EXcA/xF3AP8RdwD/EXcA/xF3AP8RdwD/EXcA/xF3AP8RdwD/EXcA/xF3AP8RdwD/EXcA/xF3AP8RdwD/EXcA/xF3AP8RdwD/EXcA/xF3AP8RdwD/EXcA/xF3AP8RdwD/EXcA/xF3AP8RdwD/EXcA/xF3AP8RdwD/EXcA/xF3AP8RdwD/EXcA/xF3AOYRdwD/EXcA/xF3AP8RdwD/EXcA/xF3AP8RdwD/EXcA/xF3AP8RdwD/EXcA/xF3AP8RdwD/EXcA/xF3AP8RdwD/EXcA/xF3AP8RdwD/EXcA/xF3AP8RdwD/EXcA/xF3AP8RdwD/EXcA/xF3AP8RdwD/EXcA/xF3AP8RdwDmEXcASRF3AOYRdwD/EXcA/xF3AP8RdwD/EXcA/xF3AP8RdwD/EXcA/xF3AP8RdwD/EXcA/xF3AP8RdwD/EXcA/xF3AP8RdwD/EXcA/xF3AP8RdwD/EXcA/xF3AP8RdwD/EXcA/xF3AP8RdwD/EXcA/xF3AP8RdwD/EXcA5hF3AEkAAAAAAAAAAAAAAAAAAAAAAAAAAAAAAAAAAAAAAAAAAAAAAAAAAAAAAAAAAAAAAAAAAAAAAAAAAAAAAAAAAAAAAAAAAAAAAAAAAAAAAAAAAAAAAAAAAAAAAAAAAAAAAAAAAAAAAAAAAAAAAAAAAAAAAAAAAAAAAAAAAAAAAAAAAA==;" vertex="1" parent="dNxyNK7c78bLwvsdeMH5-11">
          <mxGeometry x="90" y="30" width="120" height="120" as="geometry" />
        </mxCell>
        <mxCell id="FQCKP3OQzJxXeX6VMg1W-2" value="moviedata-10m" style="rounded=0;whiteSpace=wrap;html=1;" vertex="1" parent="dNxyNK7c78bLwvsdeMH5-11">
          <mxGeometry x="20" y="160" width="120" height="60" as="geometry" />
        </mxCell>
        <mxCell id="FQCKP3OQzJxXeX6VMg1W-3" value="&amp;gt;= 100kmovies" style="text;strokeColor=none;fillColor=none;align=left;verticalAlign=middle;spacingLeft=4;spacingRight=4;overflow=hidden;points=[[0,0.5],[1,0.5]];portConstraint=eastwest;rotatable=0;whiteSpace=wrap;html=1;" vertex="1" parent="dNxyNK7c78bLwvsdeMH5-11">
          <mxGeometry x="180" y="175" width="100" height="30" as="geometry" />
        </mxCell>
        <mxCell id="FQCKP3OQzJxXeX6VMg1W-4" value="数据处理" style="swimlane;html=1;startSize=20;horizontal=1;containerType=tree;glass=0;" vertex="1" parent="1">
          <mxGeometry x="420" y="70" width="300" height="250" as="geometry" />
        </mxCell>
        <mxCell id="FQCKP3OQzJxXeX6VMg1W-6" value="处理后的数据" style="rounded=0;whiteSpace=wrap;html=1;" vertex="1" parent="FQCKP3OQzJxXeX6VMg1W-4">
          <mxGeometry x="90" y="160" width="120" height="60" as="geometry" />
        </mxCell>
        <mxCell id="FQCKP3OQzJxXeX6VMg1W-13" value="" style="shape=image;verticalLabelPosition=bottom;labelBackgroundColor=default;verticalAlign=top;aspect=fixed;imageAspect=0;image=data:image/png,iVBORw0KGgoAAAANSUhEUgAAANgAAABqCAYAAADeIp+TAAAMTmlDQ1BJQ0MgUHJvZmlsZQAASImVVwdYU8kWnltSIQQIREBK6E0QkRJASggt9I4gKiEJEEqMCUHFji6u4FoRESwrugqi2AERG+qqK4tidy2LBYWVdXFd7MqbEECXfeV7831z57//nPnnnDNzywBA7+RLpbmoJgB5knxZbLA/a3JyCovUDdSAAWACU0DlC+RSTnR0OIBluP17eX0TIMr2moNS65/9/7VoCUVyAQBINMTpQrkgD+LDAOAtAqksHwCiFPLms/KlSlwGsY4MOghxjRJnqnCLEqer8JVBm/hYLsRPACCr8/myTAA0+iDPKhBkQh06jBY4SYRiCcR+EPvk5c0QQrwIYhtoA+ekK/XZ6V/pZP5NM31Ek8/PHMGqWAYLOUAsl+by5/yf6fjfJS9XMTyHNazqWbKQWGXMMG9PcmaEKbE6xG8l6ZFREGsDgOJi4aC9EjOzFCEJKnvURiDnwpzBdQboJHluHG+IjxXyA8IgNoQ4Q5IbGT5kU5QhDlLawPyhFeJ8XjzEehDXiOSBcUM2p2QzYofnvZkh43KG+G6+bNAHpf5nRU4CR6WPaWeJeEP6mGNhVnwSxFSIAwrEiZEQa0AcKc+JCxuySS3M4kYO28gUscpYLCCWiSTB/ip9rDxDFhQ7ZL87Tz4cO3YqS8yLHMJX87PiQ1S5wp4I+IP+w1iwPpGEkzCsI5JPDh+ORSgKCFTFjpNFkoQ4FY/rSfP9Y1VjcTtpbvSQPe4vyg1W8mYQx8sL4obHFuTDzanSx4ul+dHxKj/xymx+aLTKH3w/CAdcEABYQAFrOpgBsoG4vbexF96peoIAH8hAJhABhyFmeETSYI8EXuNAIfgdIhGQj4zzH+wVgQLIfxrFKjnxCKe6OoCMoT6lSg54CnEeCAO58F4xqCQZ8SARPIGM+B8e8WEVwBhyYVX2/3t+mP3CcCATPsQohmdk0YctiYHEAGIIMYhoixvgPrgXHg6vfrA642zcYziOL/aEp4QOwiPCDUIn4c50cZFslJcRoBPqBw3lJ/3r/OBWUNMV98e9oTpUxpm4AXDAXeA8HNwXzuwKWe6Q38qssEZp/y2Cr1ZoyI7iREEpYyh+FJvRIzXsNFxHVJS5/jo/Kl/TR/LNHekZPT/3q+wLYRs22hL7FjuEncdOYxexFqwRsLCTWBPWhh1X4pEd92Rwxw3PFjvoTw7UGb1nvqysMpNypzqnHqePqr580ex85cPInSGdIxNnZuWzOPCLIWLxJALHcSxnJ2cXAJTfH9Xr7VXM4HcFYbZ94Zb8CoD3yYGBgWNfuNCTABxwh6+Eo184Gzb8tKgBcOGoQCErUHG48kKAbw46fPr0gTEwBzYwHmfgBryAHwgEoSAKxINkMA16nwX3uQzMAvPAYlAMSsFqsB5Ugq1gO6gBe8FB0AhawGnwI7gEroAb4C7cPV3gOegDr8EHBEFICA1hIPqICWKJ2CPOCBvxQQKRcCQWSUbSkExEgiiQecgSpBRZi1Qi25Ba5AByFDmNXEQ6kDvIQ6QH+RN5j2KoOqqDGqFW6HiUjXLQMDQenYpmojPRQnQpuhKtQKvRPWgDehq9hN5AO9HnaD8GMDWMiZliDhgb42JRWAqWgcmwBVgJVo5VY/VYM1zna1gn1ou9w4k4A2fhDnAHh+AJuACfiS/AV+CVeA3egJ/Fr+EP8T78M4FGMCTYEzwJPMJkQiZhFqGYUE7YSThCOAefpS7CayKRyCRaE93hs5hMzCbOJa4gbibuI54idhAfE/tJJJI+yZ7kTYoi8Un5pGLSRtIe0knSVVIX6S1ZjWxCdiYHkVPIEnIRuZy8m3yCfJX8jPyBokmxpHhSoihCyhzKKsoOSjPlMqWL8oGqRbWmelPjqdnUxdQKaj31HPUe9ZWampqZmodajJpYbZFahdp+tQtqD9XeqWur26lz1VPVFeor1Xepn1K/o/6KRqNZ0fxoKbR82kpaLe0M7QHtrQZDw1GDpyHUWKhRpdGgcVXjBZ1Ct6Rz6NPohfRy+iH6ZXqvJkXTSpOryddcoFmleVTzlma/FkNrglaUVp7WCq3dWhe1urVJ2lbagdpC7aXa27XPaD9mYAxzBpchYCxh7GCcY3TpEHWsdXg62TqlOnt12nX6dLV1XXQTdWfrVuke1+1kYkwrJo+Zy1zFPMi8yXw/xmgMZ4xozPIx9WOujnmjN1bPT0+kV6K3T++G3nt9ln6gfo7+Gv1G/fsGuIGdQYzBLIMtBucMesfqjPUaKxhbMvbg2F8MUUM7w1jDuYbbDdsM+42MjYKNpEYbjc4Y9Rozjf2Ms43LjE8Y95gwTHxMxCZlJidNfmPpsjisXFYF6yyrz9TQNMRUYbrNtN30g5m1WYJZkdk+s/vmVHO2eYZ5mXmreZ+FiUWExTyLOotfLCmWbMssyw2W5y3fWFlbJVkts2q06rbWs+ZZF1rXWd+zodn42sy0qba5bku0Zdvm2G62vWKH2rnaZdlV2V22R+3d7MX2m+07xhHGeYyTjKsed8tB3YHjUOBQ5/DQkekY7ljk2Oj4YrzF+JTxa8afH//ZydUp12mH090J2hNCJxRNaJ7wp7Ods8C5yvn6RNrEoIkLJzZNfOli7yJy2eJy25XhGuG6zLXV9ZObu5vMrd6tx93CPc19k/sttg47mr2CfcGD4OHvsdCjxeOdp5tnvudBzz+8HLxyvHZ7dU+yniSatGPSY28zb773Nu9OH5ZPms/3Pp2+pr5832rfR37mfkK/nX7POLacbM4ezgt/J3+Z/xH/N1xP7nzuqQAsIDigJKA9UDswIbAy8EGQWVBmUF1QX7Br8NzgUyGEkLCQNSG3eEY8Aa+W1xfqHjo/9GyYelhcWGXYo3C7cFl4cwQaERqxLuJepGWkJLIxCkTxotZF3Y+2jp4ZfSyGGBMdUxXzNHZC7LzY83GMuOlxu+Nex/vHr4q/m2CToEhoTaQnpibWJr5JCkham9Q5efzk+ZMvJRski5ObUkgpiSk7U/qnBE5ZP6Ur1TW1OPXmVOups6denGYwLXfa8en06fzph9IIaUlpu9M+8qP41fz+dF76pvQ+AVewQfBc6CcsE/aIvEVrRc8yvDPWZnRnemeuy+zJ8s0qz+oVc8WV4pfZIdlbs9/kROXsyhnITcrdl0fOS8s7KtGW5EjOzjCeMXtGh9ReWiztnOk5c/3MPlmYbKcckU+VN+XrwB/9NoWN4hvFwwKfgqqCt7MSZx2arTVbMrttjt2c5XOeFQYV/jAXnyuY2zrPdN7ieQ/nc+ZvW4AsSF/QutB84dKFXYuCF9Uspi7OWfxzkVPR2qK/liQtaV5qtHTR0sffBH9TV6xRLCu+tcxr2dZv8W/F37Yvn7h84/LPJcKSn0qdSstLP64QrPjpuwnfVXw3sDJjZfsqt1VbVhNXS1bfXOO7pmat1trCtY/XRaxrKGOVlZT9tX76+ovlLuVbN1A3KDZ0VoRXNG202Lh648fKrMobVf5V+zYZblq+6c1m4earW/y21G812lq69f334u9vbwve1lBtVV2+nbi9YPvTHYk7zv/A/qF2p8HO0p2fdkl2ddbE1pytda+t3W24e1UdWqeo69mTuufK3oC9TfUO9dv2MfeV7gf7Fft/O5B24ObBsIOth9iH6g9bHt50hHGkpAFpmNPQ15jV2NmU3NRxNPRoa7NX85Fjjsd2tZi2VB3XPb7qBPXE0hMDJwtP9p+Snuo9nXn6cev01rtnJp+5fjbmbPu5sHMXfgz68cx5zvmTF7wvtFz0vHj0J/ZPjZfcLjW0ubYd+dn15yPtbu0Nl90vN13xuNLcManjxFXfq6evBVz78Trv+qUbkTc6bibcvH0r9VbnbeHt7ju5d17+UvDLh7uL7hHuldzXvF/+wPBB9a+2v+7rdOs8/jDgYdujuEd3HwseP38if/Kxa+lT2tPyZybParudu1t6gnqu/Dblt67n0ucfeot/1/p90wubF4f/8PujrW9yX9dL2cuBP1e80n+16y+Xv1r7o/sfvM57/eFNyVv9tzXv2O/Ov096/+zDrI+kjxWfbD81fw77fG8gb2BAypfxB38FMKA82mQA8OcuAGjJADDguZE6RXU+HCyI6kw7iMB/wqoz5GBxA6Ae/tPH9MK/m1sA7N8BgBXUp6cCEE0DIN4DoBMnjtThs9zguVNZiPBs8H3Cp/S8dPBviupM+pXfo1ugVHUBo9t/Adqugx0367/BAAAAimVYSWZNTQAqAAAACAAEARoABQAAAAEAAAA+ARsABQAAAAEAAABGASgAAwAAAAEAAgAAh2kABAAAAAEAAABOAAAAAAAAAJAAAAABAAAAkAAAAAEAA5KGAAcAAAASAAAAeKACAAQAAAABAAAA2KADAAQAAAABAAAAagAAAABBU0NJSQAAAFNjcmVlbnNob3RECIdtAAAACXBIWXMAABYlAAAWJQFJUiTwAAAB1mlUWHRYTUw6Y29tLmFkb2JlLnhtcAAAAAAAPHg6eG1wbWV0YSB4bWxuczp4PSJhZG9iZTpuczptZXRhLyIgeDp4bXB0az0iWE1QIENvcmUgNi4wLjAiPgogICA8cmRmOlJERiB4bWxuczpyZGY9Imh0dHA6Ly93d3cudzMub3JnLzE5OTkvMDIvMjItcmRmLXN5bnRheC1ucyMiPgogICAgICA8cmRmOkRlc2NyaXB0aW9uIHJkZjphYm91dD0iIgogICAgICAgICAgICB4bWxuczpleGlmPSJodHRwOi8vbnMuYWRvYmUuY29tL2V4aWYvMS4wLyI+CiAgICAgICAgIDxleGlmOlBpeGVsWURpbWVuc2lvbj4xMDY8L2V4aWY6UGl4ZWxZRGltZW5zaW9uPgogICAgICAgICA8ZXhpZjpQaXhlbFhEaW1lbnNpb24+MjE2PC9leGlmOlBpeGVsWERpbWVuc2lvbj4KICAgICAgICAgPGV4aWY6VXNlckNvbW1lbnQ+U2NyZWVuc2hvdDwvZXhpZjpVc2VyQ29tbWVudD4KICAgICAgPC9yZGY6RGVzY3JpcHRpb24+CiAgIDwvcmRmOlJERj4KPC94OnhtcG1ldGE+CvhteO0AAAAcaURPVAAAAAIAAAAAAAAANQAAACgAAAA1AAAANQAAF4+DslhSAAAXW0lEQVR4Aexd+XMUZ5LN7upTt4QuJAHiNmAZY05jwMf6ttee2YmNjYmd2B93Izb279nfdid2f9iZsXfCM44dXzMeYxuMAWNOSRwCSYAkhEASOvqu6n0vq1uqlhtoHQ1Cqi+i6W7RXfX1V/UqM1++zPKkMcQd7gq4K1CUFfC4ACvKurobdVdAV8AFmHsiuCtQxBVwAVbExV1Om56KNNKWiJWStJnCsyniwSp4feLBQ7wG3nvF4+Efl8dwAbY8jnNRfyXBpQADqKz4hFhjt8QcuSHmvVvAk1e8FY1iVK/Gc714g6XiMfw6n+UANBdgRT31lsfG05YFgFliRUbEvNMtqb4Lkrx5XpK3L8NaGeJr2Ci+lu3ia35afLVrxQhXLBtL5gJseWCgqL/SguVKJ6KS7DkusbMfS7K/U6zJYUnHx7FfWLBwuXjKasXfukfC298T/8otIr6gWjdObClbMhdgRT31lsfGrdiEpEb7JH7hM4n98AGs2FURxmJTAzEXYjADFiz07PsS3HhIjBVrxBsoJbpcgE2tk/vCXQHHCmSJDXN0QBLXvpN4x+eS6PpO0hNDjk9Nv/SU1IjRtE1Cbe9IcOurYlSsRDwGAmQJkx6uBZs+/u6rWa6Axl5gClO3OiV68ncSv/SVWLBkkozm35IRgKtYJ6Gtr8GSvSe+lVvFE64EwJYus+gCLP+p4P61gBWwSMcnIpLsPimTX/+7JK8eU4r+gV81guJb9awE296W4OaXlPTw+AA8gGwpDhdgS/GoPqLfZKXiSsUnrnwr0WP/LambZwrYM+KxUAVAtl1K9vxSAhsOilFSLR6fTd0XsIEn6iMuwJ6ow7W4JmvRet3uUtcw/uPvxbx1seAJeqtXSXD7+xLa9gZYxafANFYW/N0n6YMuwJ6ko7XI5kr2MNl3TmIdX4BB/FQs5MAKHZ5wtRiwYkHGY1teE19NCxhFY0EJjywJk53TlH7kEZIqLsCyq+8+z3oFzOg9sIfIfV34RBKXD0t6tL/wbZDwKK2Bi3hAwjv/XvxIRHtDyJeBVdQxBxBMAYopAlWX8Hk6XaBxHmM9J6kyh/0U/iOxK0zKLVeZzYq5n51aAXNyBO7hYTu53HMil56HNRKQFzjFRMxkhvz46almNCE3tuPnEtxEwmMdcmNhfAXfmcOJr6wmk95gMa3YmKRj4yBhJm1NJPWQwTLxIt4zyFxybnPcz9QCFPDCBVgBi+R+JP8KmBN3Jd7+mURP/wEEx1lJR0enP+gvEW95HU7koFjJiKQj+L84TnbJBZkqPFbtkNAzf6sg85bXqig4X25syhaohYJlUokWBMV4pqVKI2VgAVTmvQFJDV4R8zYeTBsAZJ5guXhXtIofbmmg5RkxyutFoImkVrKYwwVYMVd3iW/bHL8j0TN/lGiW4EhMTP1iT7hKfPXrxYBVSkNFT32iOXgZ1iwx9Rl9AQB6q5pBdrwFkL0D3eIm8dBVzGPBFGAAkpWMiRUds+VYlGQBvFYcFgsAtiL3xBq/DbHxTQCtXz8jybh4/CGIjevsFMH6AwDasxAgN0NgQitbvOECrHhru6S3zJPdxIkc/eFDPD4Q6263CGj77PDAQvhWP2dbJajo4+2fS7zzLyK0ZGlYHeeA6+Zfu1dCT78tgY2g7XHia7xES0UrxbKXTAlMGgC1IsNiDgNA2GfqTo9YUO5bY4NiEmwAnoDd5OdnWkvukuwl4z5KtgLQRnpDZc6ZLPhrF2ALvqTLY4MU+JogNSInfiOxUx/YBIcDODyR/UgkB5/6G3XHkte+V5BR9ZFGfJQzGB+VUgy8W8K7bMKDrpsFy6OWCq6nBfmVBdePD3Mcr+GepkGyUFCcjsMFhRuqAE8h3nPMI2c/fEPLChexZPcvwV6+ipisuOkBF2A/OQLuHwpZATsHdg0Sqf+RONzEmfpDo26DBJ95T4JbALCKBkkNXQXAQOd3fqEWJ98+vDWrofB4V3zQK+LEFO7DgsVLw2JZ47BQADQfaVgqlWPRws12IBajRKtk7z/CYr6hpMdsNzGbz7sAm81quZ+dWgFz4o4kbpyB9fpfiV/8UgTWxDl8TVslvOdXKofyQn9opRKg8r+WyHe/VkJEmcUZhIcEQIwgHvPiOZ2ISTqFh5W0q6NTcPkYv5lwQ2E987l/zv3f77WnvMEum9n5CwnCVfSyNq2IwwVYERd3SW46k9VJDfdKHBKp2Lk/oQ7sBBjCaYKD1Lxv9U4pPfQvKE05oPQ4KfFkfwdIkT8o0Mw7134qCmaOCvkxHQTTXCzUQxbdgPUKPv2Ouoc+KkiYFijicAFWxMVdkpvOACwBsMTO/wnW6y+2RArMnj2QwwL97V+/X8pf/jcJrNuH90geAzzm2JAkQOfHz/2ffi8NkmTeg6Bkrk3BmJsCyNk2P+cLgUQ5JGHEX/41z4lRVjPVviDnswv4xgXYAi7mstgUT2Scx4meHyRy8jcS7zoiadDhtsuHFWBzGyRyKeItO/TPEgCTmE3oWvGo5qXi7Z9K7MzHkkJLgfuWttxvMQkUPrgfVkX7g5gPeoIQ4GQP8xIcKIdBRTULPoNPvWIntWtWaY7OzYPdb6Hdvz+eFcgkdWNwDyNH/xPu4Ull86ZObJSjeCpX6klc+vw/QQL19NQ8NRGMXFWy90fVLsYvHxYLrmbBrqAXinso8b2lK5DEBmDwSANsFin74euYx8g00LN7JRiRBvA1PiWBrW8oRe+v3wA1R3n2E0V9di1YUZd36WycTW00J0XZE6wFiysnj/wHEsjnM/mvjHsGBYeBBHMA9HzJc78Qf+PmqUVg7kxBBkIkef20RI79lyS7voXlYYFm1r2Du8f2bvpguze2esODlc8EF7pTsaeHHyQKu1UxJ8ZWBYmrR8Eu3s3kvzK7ZLLaHxYvGu2Q0AiB1fSzyDMQsrc7NbPivXABVry1fcK2bJ/gmRALc8+c8PoEYIC5o77PQis2qiSS145JDMnjmRaIkiTmmYJbXwcN/qYWVDoXgkAlyFJD12wGsuPPsD6wYsxj0e0DIDzUC0Jm5UWy2gtBsBfbVHUHXE8yktr+DZ9hbizZfULBnhrosF3E7Ly5U1guo2YN4sHnYVFfFD/cVQOuYj6ViHOOC/naBdhCruYTvS0bUBZdQConKJolkwd63SJljoQuNX7mUBd0fpckhc5RKbyWGUljSqT8IDaC297Uk9oHVUa+YUJ5EUf/DrqJSeoYoSH0BsoQK6FvB6h6NsXRR2UTQFWLfFUVgIb/R8xFyp9Aj1/8qxItqYF2pAmYvM5cFLhDuIZeggtzYc1ZoHUXtlGjltEFWL4j4v6tKCuQ1fcRVGnIi1ilzDovqiTYes1icvfudY1xzLEBdcP0/wCIaUnS9NQ8JSvgHr4Md+xdnNS71RJN/+/0Kwvqi9RIH/p5XLTJDjCBRtVKTUp7AVIq3z3Ihwk0hNpSgM1K6S7CxDJFkLj8LcD5FXJq5+wkNy8K2cFSGACSbeKCaLBDosWobMB2Qkq4uADLLpT7XPQVYImHimcRv6j7d6/PflYR7Qg0fhDOZiRKqoinVXNaihkzZFObYNtbdv/D5rb7KiXSJpTvFO1yv6Dr2e2XxIWCi6AiOTFD8EtLaqJrMImVGAo8k9d/BLjuwNpyTpmB73mgHKHsKrD5ZQlA4+iDRVSQEqCPeLgu4iNe8Me1O7VU3DlFs3CxSKszrlKrBV0f3b3kjdNKWqTu9E4zgxl3Ud1Ggfv4oEG3DAxi6NmfSQgNRn31G+8rps1aThXyAmwKJgAgCyy1MhmA6Wcxb6r3E4y5oBxJgtTQDlaa/8pMip9nDIjyl5J9v5LA+hcyRZywfvi/R2m5ssvkAiy7Ekv02QYW2TuSC3ABJ6hE7wU5AbcPcZClriCsCF8jn0WFvMYzZAsLGjipaW1oHUB9++o3aW1XCG4iYymWicxncP5qZWGpkih5iXf+WRlDzj83h4Z5wKX0wWoG0YIgBJLFV7fOrpCeYQnnM5/ZftcF2GxX7An7PC0ELRYZQKrQyd6Z/Rfs2GcYZR50sUhUsNTEaQ0e+DsBKMZEbLcGqZHGS6jh8lY2op4L+SZQ4n4kdbVyONsC4IHbu/9/2m25Ea9BOcLUAEte7Lqy6dIY/TbApY10CC6IeJn30hYEBP9jHC7AHuPiF3vXarXYWo1xC67+ia6jkgSdTYkSy0DUAtBdhGV7UFwFEwULRStF9QTiIxAQXuakypDwBUvoU8avFUTCSvtvKD1RWh2t2NTlm8cPZd8P1nzFL34lCVRPq/ojpzKaczPEqEPubfNLEiAd34TYD/T+Yuga7AJsHgd/sX9VGUFYLTYG5dWf8iaNW6hIL9ha4VcSVMxHVTXpbYgMPGt+iiAjMQFgGUj6svUaaXRNDi/Q4hBcMeTK4uhcxb6LZDBzBubG/fvXIjWAvJvdDgAAh4xqMQwXYIvhKBRpDiZuJ5Tqb5fY6Y80KZwG2B5qqejS0fWjqp2kA6yW9pRHPMPOT34QCFRqKNvH2IaWjcwdYzCNdeZPJtDy0qpqzVnvKS1xSVz9HmkB9PRwag05P5SfBNbtRdz1KhjD52FFG+15P8a4y3k4XYA5V2OJvU6i6UuMRY64KQPzRZq3ut9vZKxC8SxOWF8d7uHFuixq/pjgVe0fFRQNUEKgkQ3+Zre7BsCKMEjfk2xJwuLS8iavfpeHMaSAF20J0MQmtO11peON6hatJSvClOa8SRdgc166xf/FBPJE0RO4KcOVr1FFfDM3XzRz+rQGuJ2Q6giRoPWt3AZ3sAVAs91BJn2zd6a0LdXMDSzce/bWSNLynv2jxl5p5OHsODG7DwAbriFv6hcEuKiQ98Oqais2xouLaLgAW0QHY6GnkoCglg1p4qgktsAYajXw/XZCQS1ARHkSa6V8jVsAsFWqrlAyg3pAnNTqNmbdr+zz/bY5x7+n7vaoUiN6/hMo73/IyLEcMii6rVB7MObSHh4U8FL5oS3YXIDNcdndr812Bdg3PtaOvBHYt2Tf2Qe7iLzyg3rXltZsZ6ZC22p1D40Vq5X29q1oVWWGbSkwm2IBDPKsRPdx9Fv8CGr7o6iW5p0yHYPuLNICzHeFd/0DYkOwhiRYGAcusrHgFsxObJKkssSkDIcJTiQLeV3xGqBT8fDqlWaRrcQSnA4bg/JeyTGtIP4S9PzgDFfrQT8aR4wnLBLFBnoV8q6UgTW7oY5vVWuRLXZUt5GfI9GxQIDTnveIH6OnPkQpyieSRhLcVpI45ovaMFraYKZhKcGvd2hZoDk49jSvl/MC2BSYmG3PPAgoE9KXeCwmE+PjMhmZlFTKFL/fL6VlZVJejitPEM0msRAEGs06D8xCHZx5rcYS+7KSBTg5ycAlKC/qPak6wxwm7mG/mTdkyCSRSYcrJQ/rZqADlA+5J8ZpdNdUscE4znGCO18/bDfO/7egIlG1feeXWphJCZeAEc0ZADQb5ATQmiDMurM1uwB8xIm0botozBtgBFYKHX/i8bhMTk7K+NiYjI+PyejoiAzfvStjeJ9MphRUlVWVsmJFnVRXV0tlZaWCraQE8haAj5bNHQu8Ajg2FMimcNeTRM8JbTaTRGmHtj1jstZJeReya6rU0YWJMZlRu96m7VfvQEHjBrFCdr/3rIcyr4sm540mOkko7ZlgZg8PE62wEUTmzhLFnT4UX+p9xrT/Ilt1F7dTb+4EHv5uXgBTSwVg3bt3T+7euSP9/X1yo7dX+vr6ZHDwloyMDEskgt52sGo+AIgWrLa2VppbVklr61pZ09oqTU3NUgXAhUJIGGas2cOn7X6ioBWgVwGpFC1ZCixiCm3WqEBPDXSiN8ZNO2nLauKCgUa3EXkyypKQbzIgR/Kt3S9mY5tMGBWolSyXqiqQD/BQ5gswe94RSTAPdvTX9t0z2ZrbWZYCa0krFkTb7SDvM9a8LaPeXzwe0awBlnULeYCjAE939zXp6GiXnu5uuTVgg2p0dFTdw2gUGjL2s8sMfyAgtFg8CLW1dVJf3yCbNm2WHTt3Sssq3JANB4ZXwLm6Ftn9uM/TK6DHC6oNC0BScS9uhmCCUaR6nkBjItpOQD9EKZ/dJKh8NgilqNazsk3Gw03SP+mR3lt3paauQbY/+xy8FOTP5n2xtFnD5MAliZAJhYur1dNsbOMcTC2wJQASzbxLiw8NTz16Di0OV3HWAMvGWNFoVAb6++XE8WNy9MgRuXbtqrqHzt/+oNcEEeOyzU9tkdfffAsHZgcAVy+lpaXi8+Eq6Y6irYAWO9JtBFPH+3qlwDbyXst8CFxKu77KATjGNWQYcTJ7qpDMhZojvWq3TJSvld6hMenEBfbypUuyfsNGefe992XVqtULADD757MokxpK9rZPoE1BehLi5DyDbeJKXvxXTTh7g5jnPEXGeXYxpz8VDLAsiZFIJBBfjcqVy5fl5Inj0nHhPFzCmzIxMZFjrQqZDUFWUVEprevWyc5du2X37t3SunYd/lYxPxejkJ0v489ofw3IjrTHOyuW+aALCatmQm1PvaL2j4drr4MkB5POyI1ZdVskUtok10dT0n71hnRd69F4OxgIyq49e+W119+QpmbevCG/m+b0gJyHgCyzDnzPOcgoEmTs/xE785FYuBjky+cZaLcd2vF3mRurr8PFANXQGJzH4xwFA4yWK5lMytDQEEB1QU6dPCHnzp2VgYEBSSTiyiLO9YeEwyWyafNm2bf/Bdm7b5+0tq6VANxJl/iY64oW9r2cUpZRNLPh3UqGrqhFM+/esNth4wT1QM3hadwm8ar1MmRVSO+dSens6paLne0ab/uhml+3fr0cevElOYhHQ0ODTiDfyc3ziI8s0JRN5j7wwD/2wzF9vRgghkxALsU23Yme41oNkBOL4fNe9O7gHVqCbRD8wpp5qehfwNSBY0qzelkwwAiu0ZERaQe4Pv/0Ezl9GsEnYjDGWNnFmtWeHR8mVV9SUqoge/2NN2X3nj3qx4dCxW1r7JjCsnypXgmtFGvG0ANeG9yADtcYbRC9MljUKF5JVTTLeFmr9I2Z0nGpS06fOSu9169LBKwxPZqamhXStn27HDz0Io7dXiWyuKAzAcb9kRgj28wQgxfRcMAQv6Q0bTNVY0YiJQOOqS5Ut6+qO8ucnuoq0bc+Z6AbFW97xLyYVlPjvmRMHcycQ853HsGbggDGhYkgn9XZ0SHfHD4s3x/7Tm7c4OLnH9mrEY1zFnzZ5/zfwGEEyOobGhVcLxw4KG1tz0gNgmV3PKoVyHSVYtOb6LgWYvIWsaZpyfXbo3Kyo1sud99Qpri/r19TMdljWg+LtXff83Lw4CFpe2a7ssL5Zk3LRWCRFLsOtrm5pUVaV5RIaaRffBZukgcRsYGOu+wiRVmWrdDHOYSNWZhL8sY53M3lt5KAAFhww72cwTgRrqx/3X5YsbclCCvmQ95uWuWf8+lH9qYggPEqNTg4KEe+OSxffP6Z9Pb06ELNnCVdunA4LCUgKpR2x4/mFSsGKp9XOy6u5aRZMxsgIEP4Hg/URrCKe3AV3Lt3n76fuQ/3/aNbAXonMQgGGGt/+LvfSns7ijZxLuCqmTOJ5uYWeemVV2Q/LowbQHQwhs43ePwHbw3IX7/8Ujo7O5Q93tVaLdXD7RKIovENbobH2x5RA8kmo1pbpu2xoYEEaUEWNHb2YyU8ftoyAHuEuoNNRll0yeRzgEwnyQ66no9pePCj07QeZO747BzZK9Tw8LBcOH9Wvvn6sBw/flxGkEDm1cg5KIOqqalRX3z9hg3S2IgiOH9AD9DgrVvSdeWy9ACYY/dGNZbLfpegLEN+jDkxWq1teJCNqqurU7BmP+c+P/oVYFgwDjXO8e+Pye8//EAuXkT+zJF2yc6Ix+6tt9+V5184IM0gOMgEOwfPFYKVZNipkyfl2NGjmjvdf+CA7NvcIrWRLvH1n0IM2AMw4DxkOQwT2tmkNuIr7e8BpYaJfoiMwxKXDtsCZueO1IqhXduanVKCtt20YqruoJTrMY3/BwAA//9KsuQIAAAtaklEQVTtnfd3VEeWx6+EkEDkaEAESQSRgwABEjnZxjbOifHs7tkf5uzZ/2D+hznzL+yOxzPjbBzI2IDJGZEziChABIPJQr3fz20VPD26ZQm8YDB1TtOt5r2qerdu/N5b1Rnl5eWJVq1aWZcuXax58+YWbYlEwv88dqzClv3wg61ZtdIO7N9nN27ciF5mTZo0sZYtW1nffv1s7LhS6z9ggHXo2MmaNm1qt27etHPnztrBAwdsx45y27Vzp1WdO+f3Z2VlWbv27a137942ePBQGzx0qPXKL7C2bdsa/0e/z9rjo8CtW7fs0qVLtm7Navvyi89s/759FngiOqveffrYG2+942vfoUMHy8nJif6388vZs2dtR3m5rV75o+3Zs8uys3Ns4uQpVja0j3WrOWNZR5bZ7UNrLHHjilmTpmbZuZaZ08Iyc9taZstOltm6i947WIa+v3PphN06uMZqLhzXODV1xrLMptakcx9rNuJNyxkw1bI65quflnWveYR/Zfz1r39NwODjxo2zTp061RkaYvLat2ePzf3yC9u4cYMLS3V1dZ3rcnNzrUfPXk7gKdOmWffuPVxAMjMz/f5bt27ahQsXbMf27bZk0ULbu3eP1dy5Y23atbN+/YpsdMkYGzhwkHXp2tWFHMHKyMjwV52B6vkjzJX3O+q7pqbGEnp5U1/MhX6D0NL/o27MqabmjubHu+ZXq8CYW5gf749jbqlocVPK8fz5KluzepXW/0s7dPDA/ZeJjv37D7A5H3xgY8aOM3ghK0sCosbzwStVUrDl27bZurVrbNu2rXZOwtZRvDZ+wkQrKx5svVvespzDP9jNvUstce1i7Rhan4zM5CtTijYzy4UrsxU8mmE1P52yxPVLGiQmYPxviw7WtOdIyxn0vOUUTbEmbbvpy8bxU+0kHvotY9asWYkJEybY+++/b7169arTYWDanTu22yf/+odt2bzZLl++4kwSvbBjx442cnSJjR8/0YYNH27tpcWijALDow1PnjjhfZSXb7Wfr1zxhRk6bLgEsru1Vx8sThCAaP/xz2Fe8XfGuXH9uv388892Va+bGpNrsppmWYvcFtamTRtrJivNGGF+MDOfab8GYzMeLT43/r59+7Zdv37Nn/3q1atOE8ZE47do2dK9gObNmrlygiGic3zQuUXnExVqn2SafxiX13XR8mxlpQRspX377Td29MiR++7ASxk8ZKj98d/+3UaOGi1aN/V7GYv1qKo6Z7t377a1ElIs2JkzlYbgtm/fQdePsrLRw21o1xaWW7HMbuxcYImrVfeNcfeLDAmaLJgGMLt93az61t3/qvOhSY5ltOooCzbDckv+YFldiiwjK1vymlznOtf+P/+RUVJSknj11Vdtzpw5lp+fX2e4wCTl0jofffg327pli8z99buaN1zcuXNnWa8yaaQJNmjwYGsry5Qh7RNnimtiqtOnT9u+fXvt4sULNkQLUyTtxyIFJg991vfO4qEZYQAXpqsSJrmtN27cFPNetksXL0oRXLbrPletSXa2tWrVWm5rB2vdurUzdPPmuWLoltZKfzcTUwemqm/chvxfoBnCdO3aNRf0q9euiqlu+N+Xf/rJfpLbdUWK6oYYDRo1a97Mhb9d23bWUu46c8NdZ26478y/IYon1fwCo8PUSVpJsPX5TswLSaoFs+a5za1jh44u8IQCJ44fc7dusTyP48dxye415o5SHD6i2D6QgPEeGgr1ipQo3spauZibNqxXX8dd6LiGdejff6CVjRlp4/rnWeuTK+1G+deWuHI2dPHQ79myXrmT/tuyexa79cuQYn3ULePPf/5z4oUXXrChin+IfaItMMu2rVvt73/7H+MdRglaMVybK+vQUy7iuNJSmzp9uruLqYQGoWDRIPzt27ecqYjdYO64MIa+eQ/j8Y5WhFno49Spk3bk0CEt/DGP6678fMUZGisGg9+RIJo4h76ZD9arRYukJevc+TnrVVBgffv2s664pmIUGPmX5hKdV/gcnR/PyPwQ8hMnjlvF0aP+fqGqyi5L+LFc0ID5wfzMjTGZX/NmzV3o22gdnlNMzNwK5b7jTjHvJk2y/Now7i+9Q6vbYnTGPHO20g47rY7bRbnr1yX8uKuhJQUsw3ppHUvHT/BxeQ5iZ+KmlT+ukHI8FS73d4S+TZu2boneee99t2Q8Ey9CgkMHD9rG9ets00YJl7wXFGJoLVq0tHzRf/zYEptc3N/an11rN7bOlet3WmEVIUgQ+XBH49+z+02y3Il/suxeoywjp5VliH6PumXMnTs3MXbsWBeueHAK4/AqDwImSwZzBIYKk4XQCAru4UwJ6+Ahw4xgF6Ai2kJ/4T0wF+/1tXA9TPmTLMCpkxKsI4dcuI5VVIh5zvj3CBaaE8ZK1QIjw6xY2a5du1lhYW+BM0VWUFhonZ97rpaRG6fpwvygzUUESwIPMx85ctgZ67xAHbeoLvi3nAHTzY81yNX8AH+653W3Pn37upXPLyg0XHGsbUMbbjIew+HDhxycqjh6RC7aWVdOxMUIQmisQKbWcdCgwfbaG2+6sCAQO7aX2yoJF/F3AKfCPaxvJ3kvxNCvvf6mDRg40BUHyg/BxHJt3bLZjlUcrSNc3O8WTGBYmZRy6bD+1vbCdrspF7G66oiAjp/MbglIq7mtKx9c0FzAJv2XLNhICVjLxyNge/fudZAD5uMVbYFxIPI//v6hEwu3J7ow4XqErKdiOFBEXoAXuDtRIaO/VO2XBIzxYF6swFExya6dOxQ0b7UKCRduD4KXru9U4/EdzwqShaAVFQloGTPGhgwdZnliapiY52loc8ssZjwnQTogxirfusV279rpGp/5Mf8HmR+0A90dUTzSY1zABICobAlhfK2ic0XBhJi3fNsWWZH1Qu72CBG86K51qrkQn2DBizXWO++9J1oMd6WwYf1aW7lihe0UzbHK0dZU1xM/jxkzzl586WVXBoQBRxSrrV+3xpZ9/72vV5xfUCLdROfRJSW6d6wVFfawFlcq7NaR9Xbn3CG7c/ms1QB2XP/JErd+toTHW40QNkCR7BaKwaZbbul/WtO8wZbRVHEZ3z/iliEYNkHwn6qxELz27N5ln3/6iW3etNE1NAyVqmEZevbKt5EjR7lWA75NxmNJNyjVPem+C0yQEEoEs+Bqbd60SQHzLjumz0D/MC/MFK5N11e67xFsXLM2in2wYCUlY23EyGJHQYnP+P/6hJ9xYR6s6tGjh23njh2OlDJXd8MEaKSzpunmFP8eYe/UqbO7i8NGjPA4B0UGk8bnxnx4XVVMSryEEkK4Dgr9QzhQROkaAosLDfDwzrtJd+/C+fO2YtkPtmLFMrfIWKZoy9HcCuQBlJaV2dRp0105Vcpirl71o6zejz4uaxRtzBvXvFg8MkqgSGHvPtautRRxtRSR4q/EjctWc0Ofr12ymovHrfrMfrutV+JypQQNqybvBOTQXyjsqNJOIo8ZLTsKRSx2AcvpNzGJIkq4wAUedcsQgyTiCxUmERgXd2fhgvmCWVfb8WPHPMYI18TfCdARLNwGrEKhXBsED3SpMS0wyzUBBKdPnXKAZfXqlZ6LASQIc2tMn/VdCwgCQDOubLwzGZYM4avPkqFoEK4jhw/b1q2bhZBuctcIhPTXbKxPe7mMgwYPsUnKHWHRcMGxZNGGsDOnSiF/GzesE3K32vOOWK5fajwnSOao0aPtrbfftYFyFUH8Fs6fZz8uX2Yn5ZbjRUQbQEyR3DxitnHyWrJFL5TMD98vdeGOCxfKgth3pMbgHixyO3kQcRon7lRbzU0pz4snrLpyr1Wf2qXPx60Gi3bzml5XJYRX9C46I3R3pDgQnqbNLSO3tWV1LrJmsl5Ne4+1rA69Hm8erCECdlYxzqaNG+UqLBfQscVdh3QMjiZE+xfKIowZWyqLMFLwf767ixAynTCHhQv9wiwE2ceV5CZ/wvgwMsySziowNmPwHiBZ+qMv8m68h/7DeOGd+0DsBkrIZs4U6EO6QUyNG0kL8w73Mwfiqn1CyYhPiDVQPsSBqebH/XXmp79pPjfNC0CGOaZrCPtzXbpKAEqsVHHLgIGDPB1Cv2FuIINYGZA7BAOPg0RxOo8j3MeYuKOtW7ex0er/jbfe8rjvxMkTnv/8UeuONYtbQGJF0izkv4gViY1XLFvmNImuE+PQf7e8PLfAIe9JOge3NDoP5kL+MiGgI1F9854wSbhwG2uuXrCaS5VWfeGo3blwzGounzHz5LT6ad1JSeZ+lt1juGXnj7Ks9j1r0cO6WABjPKqWIYaJ2tiU42JFcHtWCU1aIW0GIgQsnq5BsNZyOwsLe7s1wPXqlZ8UMpisvsZ0eBFgw7BbtmxSJcEaBen75RJeScssuB5oYIQEAUe7i/U8FwaKdkXCcEUoHhB1fa1bt25WorigTElQLAbBuAtsrUAEcmFFCeQ3gJKJkQFbcM1SNe5HezMvwKDcFknEUmLr80HTB4SR+YUx4n3RR55iHoRg2oyZ8hT6OoOiHGgopGOi2YZ1a+37pYvd2qcSdq7lHl6sFS8EuF279u62vTz7VSsQekks9fmnHzuCyBzvJu7pQA164+oBjGjVfI3IdZGcRnGExtqAihLjgjRjuTp06Jhco9rxw7X3vcsVdIG7I3DolqzXLVmvq1KyP1WqkqNCVR0nlZy+pDyX4lIllJt06mtZnXpbk3Z5ltkMN79+frtvvF/5iwYJGAsOc6Klly5Z4uafbPwvNQhb1L+/TZoyVYI22nr06OmxQ2CIVPczFpqyquqcBGutxwD79+91TZzqejQgwgzC1lHlWaBaWB60K4xz7eo1jz8o1ak8czoJ50vLA1+nasQhBO64YjBxt255znxBMQSLc1TMh0WnyoEYJ+4+0TfjNxP0TvqjY6eOyblJa7dVzJercRAwQCMY8pyeF5qePXPGlUF9Vge07k2VJmEJgPShAXRDEW6Wm/q91mir3gFd4g1LgsveWvC6u+61QoYLzzwHDhws5TJBrlxnF5hPPv6nPyNxcLyRnhmi9A5oLKmSCqGFKJ6opWM81mSYLN1YCdeIESM97UBf0Cf67n/E/9Fz3bMAyU/uQt4W2Pbz+WTcdv2KJ5KTJVWdLbN5ayGGhCT3rHu820f1d4MEjMlA4ErlQVhAyp3wtWGCdNqWeyAgFoCYrLRUsY00LxYCzRe1ClxLoy8YGLcG1wtruWHdOmfA6KJxLffDWCwujDZoyBD350l8ItgsLASultvF3ElAw8CAJMRKpxTXOdNozGijXwSWPmc8/7wzHHFCYAbmgTZH2cz/7juhhTvcVYxqbPpLMnJLf/bhAicKC/vIpWvvlox5k9NSp6Lhbbc8CCix5kbljEK9ZjovoUfPnjZlyjSBC+O9f9BaLBVAxrJlS23et9+69Ul1P5ZksGiFdc7L615r6ZNrld0023OT5N1wWUFCv/jsU8Vz6+sITaBXE9GYigyUBTlIYk/oE3gCGpD6wMKVlpZpjYa6sGGJH6ZFXUi7LY9E1k05BhG9WRItbPJ4qjZSPVODBYwFdBdEWgo/e51gWEqf3HWIMWl8IISMBSUQBgnLU60iRI5bMsaA6Ym1Vq5c4XkUAJa4tYFBQT67SFgHDBgot6PM3+sDU+iXKoo9e3bL1V3hoAkMncpS0P+AQYNsytTpHl/06NHDBRrGAdQ4eGC/kLKVDl+TfA0MxXMjiNyPC5SvOBThAvqmVhMXMVjCOI34G2SUuGmNwAlcLWLfuOByHdZ6qNwtimVHy53FYvN8KJAFC+bZt9987SVOXBtt0BvwglwlYAbWOcSY0eugCShoefk2+2buV04rFEGqlqzYScaS0f+nXxQT1rZEMVqxYvHgDUSve9o/N1jAgnVBS+EOwAgEv7hKxEtRJosTDU0GSoe7OGHSJBs+fIQX9iJkyQVKugowCQuLxvxOtW/79+29L7ENgxIc95dgjSgepSB7qDRxntydlm410jEwjOqMoxItQIDlP3wv67heAnPpPlCC+VKZgksD/Ew5F/1yP7Ho4sULvbYOAcXFizaEy7W2wBLKx3xngeYLugqDB0sYvSd8xoqRqMbCLl28yPZKGQCkxIWMZ81XTMvccGMZjzU4ceK4LRLau3jhArnYdWv6mD/uKlbvjbfetn5FRV6OlYpePOcZIZHMY/68b+96K2GeDXnHCiLMACAjiouVz+vqnkWq8RrS35N6TYMFLDwgxMfXJ8DHymzZtMkDfOrqJGXhsvveISyaFlgXi1MiCL9z5y6u7QPTgYBhsQBTfli6xEuhoh1RaYCVovJi0uTJDlfjIgIX03/oJ3pP9DNKABeGOAdXbPXKlZ7jo6wn2hAEck/A4bNeflkVKiO8b6wXSe5vvp7rzIcLFmV+kEuekThjXJlcIlnt58T8CF1DGIu+mB8VF6tXr5SVVHwncAfPIdoAJIg3p0u4Xnn1NUfnWBMqNpYsWuQJ3gsXzkdv8Tm0kzsH3ai6AHSCXqloxhxQouTQlkiZ7FWSOh1YUmcQ/UF/zK+PyrxmzHzeRimZHNYo3XjxPp6mvxstYDw8jMoC7tq1yxE+kL4zSjCmCvTjxCL+Qqu9MOsl36KCGxGYDyACVG6lkpQ7tm9zaxa9H4sHUML902cmUTTuDfdHr63vM1YH1A83d+nixfdtw4ARcEEp+Xr9zTc9HoP5KVZlfosWzleMuPe+IXABgaunTpsh61fmQAHxYGMatMWqwtRYozUqN8K1jTbmx1jTps+wN95+x9MguOpYfNDDVVIc8aoLQJ/ucnUBb154YZYLZbTP6Oekm37IwY3lSjRTU9gYAeOZqbCf/fobUjbFTkuE7vfYHljAWARyIxAfVwK3rkLxGRauPncRQlPtgZBMmTrN3UYsBg2mn//dt27BKitP31e/1kGxB8EyqGR/uZto5AfRimhomHjr1i321RdfeL0dOaQwb/rEUuLivCkGxuJyD9bL48+1ij+VI4o2hBwwZ9KkKR5z5BcUNHj7TbQf5oC7VyHXm3gKBj8vdy9qKbkedw9r9Pqbb7m1IEUA8LQM11dKIC6UFOXiok+cNNnGT5woy9olOmydz1hMFAgoKbEm6xofv84NsT+gBQXUxUKOSdwTLwagCNr+ntoDCVggEExHzMROV6o82EwHOkeldroWtG9R0QB7Ue4XOSe0Me4l/Xz2ySe2du0qt4ZRrUlchAam5o3YAxeusdYhzAlmgYnY5/bpJ/+yzUpi83dgIuaI29lfATplQ8QtbNNZq3wc8Q0oX7w6AjcQhpr96usOXYdd2WHMhr4jYNCVpC3J4qVLFqmi4sx9YAzPXqZqCNw93G4sGIqOqguKAeJlTSgnclYTJk5ywAEQJl2DFttVf7pMFRkIK7FmoE24Bxrxin8f/h80l8Qyc5wsRUpMiwfSWG8j9Pekvj+UgEFcLBaB+SHFZFix9SoOpaymvoQuCwPxcaUAPfLyuku+amy7UKsvPvvMGSVYk0BYLAqB+Usvz/YkMAnlYPnCNQ19Z95sl9ktF/cz1Vhu2rhB+bKrd92guwImIOXtd99zAYOBiQu/E0J3VEAH23ZCg2lwfbGuVKL366dSndq4MFzT0HeeG5omy5TmewwEgyN00RYE7FW5YSRuscjr1qowV5XvpCKopI82douPl3CxKRbrT/4sXcPVD+kY0hGgk/H1YHy2+FB9gsWNey7QhDwZOyzY5U4erJPKpFBE0Pf30h5KwCA6L2B0cldJCHylBGWraz2Inq5RBAy6NGHiZM/LsFAw+jzlligujjYWBLAADUxgP0x+/cNow6SA3fY8jwuYFANxWbCYjOcu4sDB9tY7yYTuecWci2S9yDFR0BrdS0WSFhdowoRJBsNTOIzFfRBGgp7Mg3jUEUHlHE/JHcUljzYKbXH33pCLyL4xrJy7dAJHDsptj3sRpBqef+FF1QBOlDXp6Qoh2l/0MwKD5Vo4f74sWTIWjgsY+bSCwt6aq2ofRQ+S2pSJRRtCRu0hZ61MlRUbIiEjtv09xWMPJWBRYsIUQLsUvVLdwPkbWLbqmOYN98DALBAuROn48RLS2w59E0OAhkUbloqYBvdmvJiYw3XQhA/aEDAYlpjq008+dsGGOfiehmCQuyNQJ8ZBC2NFFshlQ8iIPaMtJ6eZlwJNVEz0siwsiWD6eFABYx5YDQqs2UlMvpH9W/eadhKLfrjKbwlyJ9/GnqslgvaxYtRvxgEnhP51WddxpeM9j4aFTddQNuTi5ilVsmf3TlnHuiAL92Glx+ocF5QLcfiuXfcOM4r3izBOnz7T83bMA+/j99J+NQGDKXCbEDJ2PoPQ7VLQHc/HBMIS41BXV6oFJ2F6TQy+cvlyxTmrPJ8TruMdAUNL42oAOOSrQv9htCCABkyES4qAEbPgggUtjeYlZiFfR10eaQGgc5gdBXAfQidXCKFCwGY+/6Ln5Zj3gwoYysoFTBaEMU+dqmvBoAegBTD46yrM5ZChAwf22wLlrNar8oVNllEXnefhGXB32asHg6dTUNAA2vyoPWDffP2VHRAySS1nvJFAniIBz8vr7ugqYAz1okmvpW66hkoTBJK1Q6Gy7lh45vW0t19NwAKhWJwKaVMq4EmWktdK1XDxqA4nbpk8daq7mCR/OViH+CPaYCgQOoJlBBItmI5Bovel+0wQf44dAhs2+GEue3QoCzFgaIxHjFhSQrnUi0oN9LBDhw7685Bcxx2OtqAsgMCff3GWM93DWLDgDeCikYfiaIRoDMazA/IgYLNfe926qqIFC/L1V1+6NWbncfR6mJnE/Lvvz3FQCQCC71I1BAyBQpF89eXndljWCXrF29Bhw1z5kIS/UKV9YwJXKD6g+iR+PWOhEKhbZA15J4/3MGsYn89v9e+UAgaReaGNcKVYcLQN+33YxcrndI2FBRDAKnz68b+8MJi+4g0B66IkMZv1iMNg+CVCzLB68cQv43VX/gsNOFlMjPb0anm5YY1p4bmojiDO46yJtVIEIHbRhnUkUQoAw9FiHAKDgOGCgdLFBQxGoXJhoiD62bJ4bIgkKf6gFgy6g8YGFJH9XVFXOwg08SgCTZUEqB+bYkESKbilDxpzYH4DBw3STuU5vt0F2qcTMDwREEjQy68+//xu6iVKHz6zG/ltIawk0zkpi3VbJUif8UkrxBvzwHKN0s6KMoUEAwcO8niMtX0QOsX7/63+nSFtI75L+EOiuXnYpLt303MplZWn3Acn7wISRX6DmCNd416EjPjm439+JGRxg2u0uJChRYHdERpKik6eOO4xxz65JGwtiTbmBIjA4aQwFFUgxCD1CXr0/vCZOaBdyWEBCGCNOHYABDHaYECqOHD3hguIaaG5HhVySPwFksiJWNFG4S4xG6dqAZtjbX9JEUXvD5+ZHy8QTua4YN48JY6XOOCBWxsaW17Yb4eL5ikLVauT04Pe23TyFxaIdaBBO56HAl8EjF0NCBxrnaqxdhQRLF640L6e+6Urn+ja0R/34mq+N+cPXgNKYTB1lGzwRDCPHD5Sa8XqKlZKvHClk7H0RF9/5kafvJ7GlqGzGhJoLBieLQqtWrX0I8Vw02C+o0fY5HjJYV0ShiB/1BWmaywGFo9K7H9+9HeH7gm4w4KH+8h9eZW9fHJiHQLlBfO/c5cylc9P8ShAx0uvzLbJU6a6wDU2DmMOABRoe1wvSoHiY8E8bCchVpilnFtvVWZk6TvPSwl0WLBg3n2Hv8AcgAbs0yIPxqZNBC4dEwcaxN+ZH6+kEjjuAoZAE8dG6ReSxiTq2VrCPi7cs3989KFt37bNvY4gFCgh1ha3DItTPHJk7fab1AKGi195+qQLGKAOaGa0hbM7oM97Eth+gvwZI6lUd2o38xKfC6BQsKLhfuiEYhw6dLgjoMU6noAzR1jHp1bA/vKXvyQOq3ody8Tpvr169VRAf1TV3Ns8T1R1vsoFpoPcJFymGSpReu65rmlBBogKzIuLyGGlnKUYZY5AbJgYYWVjY4FACywehaWMzf3xxgKARk2ZMs0rOYCaOTeQxa3PksFoQejpl3KiFQJTNislcOLE8TqxCmMCABQW9nbghZiK9ABMdV6CuWTRAq9UB9WLMw/CRDxCBf5oVapjnRE6vq+vMTfoA4PijpOuoO8z2ru2cMGCu3WFQWDoi7VAYJgf2+8RIGB1FBq5vSi9oQ3PNGzYCKUc3vXdDLiH6WgGYoiyo+SK8zh47mjjeXguBOwdgSaAJyigGj0Hinjv3t0unGwzunxZW/z1fbQxLtuB2AWBsmSnAfNr7JES0T5/y58zXnnllQS7YLtJwEZJo+Tp/cSJ47IkBz1hHBKqaGQqFah/I8Alv5GqoQEpFF0vuHixGJLFStWoAJ8mF2eCcjmttFWd8/PmffeN72KG0VI1krmgUeyQ5nAWClZhrvoWJzAvFScc/bxFAk+cAJTNXOMMgGAQI5SWTXAmQIhplB79qMNf2AMGYkecGW8gjwMHUkE+1rfSA5SQjqivYe1JEWAhsRa4by1atvD+OduC0qx41QhCj2ARu7LXStvefGsPMRhIXrQhELjXFCC/LkgfweS7dBaDfNZOWXhQQYQ2Hm8inLioWM431R+1l+Go7KRiqHSAhPuPSnFD41QNYMYLDaRgC+VSI2RPY8vIz893F5Eq8J7ddcJqqxa+RSJ5MOU9ZA0zTgxGbEKCE1SKbH5ysdgPlHANDIJVLuu3XuABbmJcA0JEFgmrRVKWhUJ7oy3ZokIVSDSgjxId7QfD4lqWKWHKFnRcDBgyaGW2vyA0oILV1ckqA7TyEeXWYJidys8BGhCYRxt9E2dy8M3Ls2drH9dI3+ELw9OojMAaExMhoKBl8QbTwszMixKwaDU9mxP5f14IPS8YEuGCqfEYOAkKGmOdb+v/2FUAEBMve0JwUQDQrkBuMzHkmlWr7DspKLYPRRvMj+vPWR5U3gMQ8azpBAxBh07Ep5SSxceGD3BRqWckr8bBqL55VINCdwAkSsnWrPpRVT2py6yYH2GGQ/cCuciD5uU9ndB9RuvWrRIweGtpkOc6d7I2eic7H3UzIAgLAnrF1gMy86BAXfO66T5tz9b/ETec1aGWBw7s84oOFpp8UdwaIZBsGBw2vFgV9bNco3IdCB0CRh4NrZ6uZWaSA2rjwTLuSV9pUNApav9AFumf+xmXxSYWQLiwpFTDE8CnigmJDaiXA0ChmLiwsLe7wfRH4x5OEeaXRn4QhM0xAakaDI2yyi/I94NpUAZYexgqO5tYQ/vKND/cVcqbKjU/5nbw4H4MkY0R4MM9zJPtNBvlysZBmLs7msWYuM2cHw+Ch8XDfY02FEQPoZqAElRy9OnT1/87LmDBknPu5HJ+SWf1Kvdi4hYIpcouZoCKV157zRVlVGChOygi5zEukovrZVtSAPE1RSHiHXBoDqdBc4w6J2U11a5qWnx+/uUT+E+GGMid5JYtc62THrBd2zbWRBouXQP1wb0Diu4mrYPreFfAtNBUYcDUuFBh0aJ9sUDEKlhBNBdHCHA9ATWoWVXVuZT3RftgPIQJxs2Xm4hGp/QqWFQW8+bN5A5m+oZpTiuXhBJI1bgPxQHCNkaMCKTNYkcb1uaimH67dhqzY5hkOswUzZ9Fr8ed5WwPhBYh4MQmmD0jk2MCFKdeTQoYO6IrlDfE8nMdIAlWAaVAcTGHvsZjUqz/zOdfcAQWJsWdXylLh1sezyGyXigiYibAIdzqVC2s1X79PBXrQF+nBXbEaUb8hdeAewoIBB+wHkEgUMzQHwW7fNn3ng/lc1xQwxzIMbK1h3QIcRl0i/YXrntS31GaCXe9FMt07aIDY9q1dU0aCB5/MGduMQq1cIGh6QTCwnBoehYlbgHpB+ga6+X7uabP1ML3syZZTcRMh32PFQfqxKsk4uPf/Rshk7aDgXJysu+5iFIOzJ1zG3ARmQtzotQo/kzhWVAYaFAAF9w7LGRwDcN4PA+WHmH1fVqCpNm4GXc1w/XkwXKgk4SXvtDYWC/940JZcyfpIt7UvNi4Sd8k0N96+13P+ZWrnpPTodhhEGdyrBAAAcoAl42KFOJDjhmI5xApyA2ACOkQFFqqFtZrt9y7L7/43BPWXupWXbfIGAHIzy+QgpykeFyHAkm50aAlDRrTF2750SM6+kEVIRQgs/0obsW4HpcfJTRFwk8xMrFZyHGGPrnuSW0uYDxIKxGusCDfOuv0I5gmfg7Gwz4gDOfHQKtQF3cFRmbr/88/X/GkLxsf2XuEW/eoWlIbdxVQMMhjFGoPiYEQhnSNHBhIHTkfjpWmLAmL9Gs0LM2cD/4oy9zJN52SQ+THD+Nr0a+ov8c/xHnVcudxW0FGATg4/SvaSIcQf00VOMXmRxLiqRpCgQBgoSkQIM5kl3QQvHAP8RfHIOAiopBY01QNZYsLzDN8v2SxrzGASVzJodwBONh7h5XlmRAyXPOnSsA6KG4YNVLHRiuuwp1Ce8WJm4qQDfkOLc72CBCvaTNmyFoMkUvX3v1twAKOHaA0h0WN56Ua0n9jr2HxSJbDHAARnHZFIpZz3wNYkq5PABjcHawGbu0uATkh1owzT7o+Un3PuABH/AwQKB1VHOwUx0rGBZhDR4HIR5WMcQXFMW2ARCcUf8UtajIBPskPukEwEJBUDeHCigLkfKz0ynbt7cNyxp8J1xmgC2sDkkvJU6oG70CrQ3JfKRwGhCF8AJWO94mQMS8sLQATcRlbXbDOT3rL0EPoeRMeL7zy8kvWv6if4SaQG0Mbxhe3MQ8M4UDmgJVJvhZrYdBUMDbuIowOpI8LwVnmHPISjze4BktDw5V62PngrgGIdO/e00EIUg4csgn6hyJgzvVpzqDpAWN2qDxo86YNjpZSnIvgPYhSYsxkMniYvfveHI/T+MlWrAllT/E+sbRYOpLGxG7sAl+uEi4+YzmijWelpIqNqsRuuIypGnTFlUbJYcGI/RC4uDDgTpeWjXcLBtBF7JuqcR/zvioPhe0zKAHQSRRqfI7cDzjUUzlYLCOnUBUW9r4b39e3HqnG/i19l6F4IwFh+XXLt99+28Yph0PZEhA7v8eML53Kd/6lhwC6xT3p3qO7Wy60Ut+iIrcSnLAUGsRnlzA7ojkyIB5vYPk4wRbgpeJohSzr/Uc4h77qe8dCAAiQUGfxqNDo06efw9yMAZPzamhD2DkslBgJa7Z39x5ZkGPu4sKYjWnMLWkZRjmUzvb/f/3jI3er4lYEZuOH7v74H//hW/FBRjlaLRQhxxUQ/c56+RWP2eo7Nq1asRbeAwXQ7JEj8R/vi2fCfZs+fabD9AWiY0PyVwBXawTYUJ4G9J8uzmZ9QFDHKVakhI6cZFB6jaHnb+najAEDBiRIcLIQL730kr344guuzQEeVq9e6YlfP1BSmpHcDJUGcY3KomNpEKqmTbM88YtwsaAIFklREDW+A4bl2qAZqWSf+9UXHlRjBeKLSuD/khgEt4nFP6LAGaGnXo9rgbyZT/RY53vz0ZzEvC5c8vPz8iTscgmZE8E58yH1wP/TGqMpGZM5YHFPHD/hNYBYHGKmYPmZX0h5hOdlHATZ6cXcRItk8W4PT11Q/Ezh8+c68JM1EFzDLd6YX1PdQ/xKVQYxGwlz9o2tFyBCziqqDDN1Pclv4PnpqrynAiSdEkEpEP/yW3Ak/FGu/gOGYfDad9aUYoMSKWKKjLG8v9QQXD+lShtbVypWPKkQJFVDiSJQrA8xY3+hzVR9sD6NWZtUfT+u7zL+9Kc/JbaKqMDqZVrc2fKBBw8e5AuFdmYBT6nwlOQsSWMWkeRoWEgYBaJAaPxogmi2UgA552kxyMHAzKBFXBsIFVwIfhwbnx/YG3ciKrwwA27Ie3/4wDUbFo5EKIWl1BSCmCFsLKCjhDUJMVDtbx63aOmL01axJW4SzIVryt4ptHCYTzqGa8iC8Ay8GJ90AGfpQysSx8SwzI9yoSho5PQS8skeqbaiFy4WeTNSHqBpoHznpfE3qbbwvLaB0ALNeKdqhTzYyJGj/JRc6hQ5gcvjmxtKQ9yTRy/xwsLgUpJA55nTNZQB61qhlAFrwg5pWhIbvHcX86U/Ugn03ZA4ib6xyhWU4G3f4esnwt3rtPZTUEIkxqlxJKVAneUTLWCfffZZYunSpfqBtZ1+VgNWTL/b7Nl/UKRzZ89J+1D0q1ySEDMYh6oGGFrZDycwfj3BNMKFleDkXlwxrGI6nx9BQkg5JuDDD//XKyxYiEB4mAnBJfCd88G/eY6KbfoIOLEGvvyZyjP+GSbGzUXjogX5nWHyTggV8V8nvWBi5gi4Qd+Bae9b5Qf4IggaB+OAlFWdq3JwAia9cL7KgQh+P5pnQ0D48QcYB4AAxBC6+RHUEgDmhceAMguxir7yxv81UayC5SVmJJ7kuSkDw2oGBg2PwPV4DFyLG1yfMLAe0J+xUQz0Swtjhz5ZE07zQrhg/MYoKBQRa5cKnaT/IHP0SfoFxYjb+EQLmMCMBP7xOhVnouHHK/kLbA1DQnB2xuIGQRzeESySuGH7BA8PYEGVArkxfmcYlwcCwQC4aKkawsUiEvj+/W//6wBHlEHQ9AgEiBW5IY7cTua2knvUbgiNIg66KdcVtMrdmVqlyL1ZclVzsnM0J73EFMyFQJr/o/1/CBjPhKsFrE7sxBxviVbQMVhmLCxzgPHJ9zA3XjA/3zMv+kC4Aj2iVoTCY67jebg2jBnWI05rmJX1of/6hIH5MZ6vucYO842OTd+hvyBcjaEjfUOXdHMNNo0+fRzN+UHGidPgcf7t+8FADPfu3esuREFBgQsaWjLaID4vCO+LoXcaCw4xwit6T32fYSIsITufCeipIIg2GALYnBwOu3aJnZ61ZxR40iiQIQ2YQKvwSmpW7Vqu1abRhwnaNLxH/4/PaJ3GaDM0NO4mSVKqwA8erFvbh1YnXhqjLTQE6SRXn7VnFHjSKJDyyIBH8RC4h6CGayVgc3WWBLV30YabCTxfVjZBxbdTvIwo+v/PPj+jwJNAgccmYCRlTwsR9OPB5n3jCFOUYGwvB/ki8UhpFTmRZ+0ZBZ40Cjw2ASP+4kiCNao/XLx4oUPcUeKBUrGlfLK2xQ8fzs/fpK55i97z7PMzCvzWKPDYBIykJsWp7HlasfwHP5osShwq2vkJoOkznvdtDBQGP2vPKPCkUeCxCRjlMjtUNkMFvdeo1SY2AwHJE3GQ5wwJGFvKgeyfxgbMDnwNCvsk53uexrX5NZ7psQkYyVEqBthWvmfXTiGKdY9CI8lYqu0L7C7mN8Hqq0L4NQjxqPsIaQ9iUZLn5LVCZURj0NhHPe9n4zWOAo9NwGAqDqGh5o1DNq9drXtGBgLFzwcNVv6Lejpg+6ephaQrZVVUyFBqRplUqs2eT9Nz/96e5bEJGAyG9ua8Cc/u1yauwwJQ8oSQUbOXKi8XrntS33lmSpIO6ZyPA/rpJypf+sgV5sAbSptCBcOT+nzP5p2kwGMTsN/7AlB2hvXap4Jq6kAROCxYv379fOsQQobQPWtPNgWeCdhjWj8S7VSyHFERtU5X9uPqiL3ytPMAIeNobIqlf6mG8DFN/9mwDaTA/wHZP9zfQmodGQAAAABJRU5ErkJggg==;" vertex="1" parent="FQCKP3OQzJxXeX6VMg1W-4">
          <mxGeometry x="42" y="40" width="216" height="106" as="geometry" />
        </mxCell>
        <mxCell id="FQCKP3OQzJxXeX6VMg1W-15" value="模型训练" style="swimlane;html=1;startSize=20;horizontal=1;containerType=tree;glass=0;" vertex="1" parent="1">
          <mxGeometry x="770" y="30" width="300" height="330" as="geometry" />
        </mxCell>
        <mxCell id="FQCKP3OQzJxXeX6VMg1W-37" style="edgeStyle=orthogonalEdgeStyle;rounded=0;orthogonalLoop=1;jettySize=auto;html=1;exitX=1;exitY=0.5;exitDx=0;exitDy=0;entryX=1;entryY=0.5;entryDx=0;entryDy=0;" edge="1" parent="FQCKP3OQzJxXeX6VMg1W-15" source="FQCKP3OQzJxXeX6VMg1W-19" target="FQCKP3OQzJxXeX6VMg1W-36">
          <mxGeometry relative="1" as="geometry" />
        </mxCell>
        <mxCell id="FQCKP3OQzJxXeX6VMg1W-19" value="" style="shape=image;verticalLabelPosition=bottom;labelBackgroundColor=default;verticalAlign=top;aspect=fixed;imageAspect=0;image=data:image/jpeg,/9j/4AAQSkZJRgABAQAAAQABAAD/2wCEAAkGBxIPERAQEBMSFhUVFhUXFxYVFRUWFhgYFhYYFhkXFRcYHSggGhoqGxYXITEhJTUrLi8uGB8zODMtNyotLi0BCgoKDg0OGBAQGi0iICYtNystNSszListLy01LS0tLSsvLS0tLS8tLS0tLS0tKy0tNy0tLS0tLS01KystLSstK//AABEIAL4BCgMBIgACEQEDEQH/xAAbAAEAAgMBAQAAAAAAAAAAAAAABAUBAwYCB//EAEEQAAICAQMBBQMIBwcEAwAAAAECAxEABBIhMQUTIkFRBjJhFCNCUlNxgdEzcpGTobHwFRZikrLT8SQ0otJDgrP/xAAaAQEAAwEBAQAAAAAAAAAAAAAAAQIDBAUG/8QAJxEBAQACAgEEAQMFAAAAAAAAAAECEQMSMQQhQVETBWGhFBUiMlL/2gAMAwEAAhEDEQA/APuOMYwGMYwGMYwGMYwGMYwGMYwGMYwGMYwGMYwGMYwGMYwGMYwGMYwGMYwGMYwGMYwGMYwGMYwGMZB7b1/yeCSWgWAARSa3SOQkaX/idlX8cCdjObXteVdFq3cxnUabvUegQhdF3o22+A0bRvtvjfV5Jj9oFEmtWVWRNMVG8qxDbkVqFC2YlqCiyeK64F3jKh/aKFEmeXvI+5j71xIjKe758Y+sODdcjzqxh/aGIdyNs26YSGNO6kDsIyoY7SPCPED4q4wLfGVX9vwlEcd4S8jRLGI27wyJu3JsIsVsYknihd0RcbVe0qqITHHI2+fuHXYwdCFZja+vAI8iDYJGBfYylft2OKhIzM0k0kUapE1lkBbYALsgKfFwOL4GbD7QwiMyHeCJBCY+7fve9NEJ3YFk0Q1jjad17ecC2xlf2f2xHPJJCu9ZI1RnR0ZSocsF68G9jdLHGR9R2wIZdV3pAjijgYUpZi0rSLtAWyzEqgVQLJNC7wLjGVaduxVMZN0Xcp3kglUoVjonfzwV8Lci6og855T2gh8Qk3xbYmm+eRo7iSt7i/Jdy2DyNwsc4FtjOf13tQkcOokWOUSRwPOsckboXVR1FjoCVDDqu4WBYy1TXL3PfvaKELtvG3aoFktfQAAnAl4ypg9oIW3b98W2IzfPI0dxLW5wW8hYsdV3CwLGeYPaOFngjImRpyREJIpE31G0hIseHwoTTUenHOBcYyBF2tE0UEwJ2TFAh2nnvPdseX45oX2ghLBR3m0yGES923dGQMU27/1wVvpu4u8C2xlN/ebT/PG3qFzG7d29d53ndiJOPHIWIAVbJ3D1GbP7fhCzs+9DCoaRHRg4Vr2sqgEuCVIG27II6gjAtcZB0HaiTM8YDo6BWZJFKttfcFYeRBKsOPMG6zVHrWk1bwrwkMalzQ8UkpO1QfLaqlj694nocCzxnO6Xtt21hQ7Pk7vLBE30jPAoZxd8g1OteR07dd3E7sjWvLJrkaqh1AjShR2nTwS+L1O6RvwrAtMZy8/aUsmr1Gn+Ux6Yx7O5jZEZpgY1YyneQWj3sU2pRBjNtyAJo180baL5Qqr347uRV8QSfYZAVbzQ7JF58+76c2F3jGMBjGMBjGMBlN252W2qk0yMWEKM0rlJGRy6gCJQV5q2Z7BHMa9bOXOMDlNd7OyJ8rXTlmTU6ZlbvZnciZPDGQXJNMjsDzx3accnMdtdizTnWoq8SSaWeNu82Kzadom7pmQ70JMXvgcbgeorOsxgcdN2HJMmpqF0Lad4k+UamSeQtIwLVcjokfgX4k/V2+K/1OidtXpphWxItQjc83I0BWh6VG38MssYHLars7UKWIWRo2nmd44ZRFKyuF7siTctAENahlPI61Rj6XsrURKT3J8OtWcKJhIzIYhGfHIbLg8ncfWieM7HGBQQdlSCaJyBS6jUyHn6MiMq/jbDK7tLQPDM2pPd38vjmiRnC94DoF0jJuIpX/SFQeCVUWN1jsM1zwrIpR1VlYUVYAgj0IPBwOc7A1Dzdoa12jCAafSJW5XYEPqXKyMlqHpwdoJoMp+lnrt7sOWdp2SufkbIO8eMsdPK8jpvQhksMAGHQkHyy/0mkjhUJEiIo6KihVF+gHGbsDk4+zNQV1MkMckMhhMcRn1LzS7ibblnkjjXhaPiN8kUKMdOxp21AmSBlB0uqgrVahtR45WhZDIneMO5+aIIQ2d3Qdc7TGBxq9j6l49RDGkkMT6XURd1NqO+BmcKI2hO5ikYHeCrXqvh4zotskmlK7FSRoiuyYB0DFSAJAjUy31APIywxgcX/YM80eo06rJBDJppoik03yhe9faI2iG5iIlG8EWtggbfMb+0NTPJqeye9gEQGpku5Efc/wAi1X6Pb9Ct3LbT04611ueXjUlSQCVNgkA0aK2PQ0SPxOBymk0GqWLRaTuQF00sW+UyLtdIrpo1Hi3HwkhgK5AvrkafsrVP3ZeKV5Y9RFI0jan5p1SZXPcQhtoO0VTKtc8k8ntsYHL6nsKVtMyAeNdXLqAokePcrah5AO8SirGN+PQ1fGeIuyJGTVMNOBviWNY9XqJZ2emZmV27x1RCCANtkGyfIZ1eMCg9ntLMkkhZZkh2KFjnmE7hwzFmVtzEJtKiix6dFrxeLkh1OvWNQZJokmgDEKrvGndMhPUBSsRJ9JR6HOizBUEg0LHT4fdgcpL7I91pkEEkzTw7ZULzy7HmQ7yWSygDtuDUOBIaGS9Emo082tYacus04lUrJGOPk8ERBDEUd0bfwzocYHN6/v2Msc+jXVQyFSi3B82CgDRzLKwBpgxDLusNVccx4tHJGnZejYhpEfvZKZmCRxI3CswtgHeKME0SDfkc6zPO0XdC+l+fH/J/bgesYxgMYxgMYxgMYxgMYxgMYxeAxmLxeBnGMYDGMYDGMYDGMYDGYvM4DGMYDGMYDGMYDGMpddGzahSdzINgCgD3gszkAnpdR3yAdoB64F1jKfsaNldgVK0GscBfE5aNQFJAISya+0H4XGAxjGAxjGAxjGAxjMHAjdpsVhlIJBCMQR1HGcp8sf7ST94/55P7PkVtJqNoIIVlYliSWVSPFfutQHh6gbR6ZUCLwb+ehN14eGK1uvrxmHLvfs9H0Uw63t9pHyx/tJf3j/nj5Y/2kn7x/wA8irAx548ujKSbNcc88g557t+OOtea9CNwJ544F85lvJ3deL9ktta/2kn7x/zyr9m9fKdMhaaZj4uWlkY9b5LMSc3zoyDxUPxU/wAj0+OVHs3J/wBOn4/zye1VvHhb7SeK+tDIHberaGIulXajxAkckDyIyeMqPaj/ALdv1k/1DOjkusLY8KqlPaKexYi6j6LeZ/WzoO2J2jgmkQ0yoxHnyBnz3SzEzspY0CtLS10Q3YN3ZPBzvJ9BJKZ1d/mpF2qorclgAm65v49K874w9Lnld9rtT3srjp/anVIpbffIFBEs2QOLHxzSvtnP9KQryBzGvn7pbw+G/j6c1nRn2NiPWWX/AMPv+rnl/YiBuS7nqORGeCKI9304z1O/F9PPnF6n5v8ALnk9tJiQBL1NfoxXWhZ28Hp+3JL+0uqo/OD/ACJ+WW59h4Lve9+u2O+t/U9ec9t7Gxfay/8Ah/6478X0fi9T8X+XP9m+1GrdELSAkkg+BBdOR5D0z6MM+ddldlwgKA020MtFmQMQ7x8lTEKrvoyR6MKJ5r6LmPJcbrq7OHHkly7359mciz69EdY2J3NVAKzdTQuga8+vofQ5H7O1kkjssgQUoJAo1uJqmDHd0I5C9LryHqTRE6hZvDQCjnqKWbkcdbkA+68zbpMOqVyQps1fQ9NzLxY55U/w9Rm/IOi0rRtyRtVFRfU1yzN8Sa4/w350JbyBQSSAB1J4A+84ESWNlkMlsQQiBQW2gAszsVHG4ihfwHrnqDVVF3kxVK3WT4QAGIBO7pYo8+uaD2i0vGmXcPtXsR/evnJ+HH+LPcHZg3B5WMrjoW91T/gTov38n45brryz7b/1Ufb3tDIjJ3FqhDeJ04eiPd3c18a5vi8rP7zan66/5FzvqxWXnJjJrqyy4OS3fexQ+yvaUmoEplIO0rVADqDfTLoahN2zcu76ti/Xp1zZWUumuTWSNf6IFaABA3UaLVw3RqFGqu+Mzyu7uNsMbjjJbtd4xjIXMYxgMYxgM8S+6au6PSr/AAvi/vz3lb2tFqWKfJmRQA28MaJPh20Sj8e9YrzHPGBB+S91ptWArAbDRfbuNJ57SePIefFdAM5FNYRt6GgVo9CCSefxP8BnR9rQa8QTlpIq7qWwW3We6bb0hWvHtN88A8G8+b7tV6p+8H+xnPzeY9X9OkuOW5t1bdqEkEqvFfW8mLDz9Scxpu0Ka2qiAOl+6hQWPMc85yu7VeqfvB/sY3ar1T94P9jMe1+3f+LHWutdPq9buDKOhN2bu69LoflWU/s5J8xH95/nleW1Xqn7wf7GROwTqe7jClOvFv8AHzHdc/t/Zk+flWzrdTG+K+ldu+1uo0+qlgjXs9gigrHJrRDqGBUMZCrIVVByKJuhfTLXtXUGXQxykxkuIWJjbfGd203G9DcvPB8xWT9X2HpZw4m08Egdg7h4kbcwUKGaxyQoAs+QGQva9jHpD3aA00QC3tAG8DyB4A9BnTyzeFj5yuI0QB1Je0JNe4waqKCm8IomvXyryz6rny1NXNuX5lfeXo8l9R0uID+IzrNbq5flTgSEIhA2r4aUfJy7NdggDUFieK7sDoTmPpZZLtGLpsZE7JdmghaS9xRC18Gyoux5HJedSxmCMzjApdP7PIjId7lU2UprnYsaizV9YY2+9fQ1lyczmDgVPYwj3yrGpAQlf0gYWCVPgBse7wW561x1r+2OyJpZndVBU7a8QHRQOh+IOTuxSe+1NgA3yASf/kkotaryRVdeNvNVlzeUzwmc1Rxf9gT/AFF/zLkvR9lyxANMnfKCSIw36Pm7VT4ZD588jyzqbxkcXHOK7imWEqtE66jYY3ICNbqCyPwrUjL7w5KmjV1m7RyyszCRQoCpR9SQS/nxRoV/Q8TaaHUeIEFkJXfG1OrKaK7l9D1U/iM1d7PB7475PrIKkH6ydG+9aP8AhzbUvhHazytMrNd2p3cgjC3wGZixUAHebFKbpYnPl9EefGJe39MoUmQc30ViRVWGAFqeRwaOQ37a0ZcSd624EfQfoFZa93p4yfvx0y+i8uE+Yn9mdpd/R27Qe82+IMT3chjN10+gfP3iPLnRpkC6qUtISXCgKVcVW48Eiq2g8c2QTxWbOyJ4JWkeFi3QHgqFHLUAQOpLEn4/AZq0IPyma2ZupAINR1QAsjqQSR0obquycrrS8ss3FzjGMJMYxgMYxgMYxgQe3FJ0+oABJMb0ByT4T0z5R8jm+yl/dt+WfZMjdomQRnuj47UA7dwFsASR5irzLk4pm7PS+sy4JZJvb5J8jm+yl/dt+WPkc32Uv7tvyz6SdfqY2KvFv+l82GI27bZUO2mK1Xi27iwqqrMjtOcMFaBuosje1W+3ghdpAHqQaF85n/TT7dX92z/5j5odHP8AYy/5G/LIvs9op9kVwzDxfSidT73mCM+3P0P3Zz/sAP8AoIP1pv8A95MmcEnypl+p5276z6dEMqPaj/tz+sn+oZb55kjDCmAI9CLGbZ49sbHmPnqHlfvH8xn0B4Fa9yqb9QD1q/5D9maxoohz3cf+VfyyRmXBw/jl90SaMYxm6TGMYDMHM5g4FZ2Np1QyHcjOTUhVShJBbll3GrJJvi/jxmrXTv8AKFXeyoFViFUkniViBV2fmxxRNXXNZ57Ej2zak+blXoEGgxauQx54+HwzT2p200UzII0baRRJN2Vv09GI/E5TPOYTeQl9jzMzUxf3NxVwdyW7bA1geKgb+4VxRNtnKL7SOLqKMWbPJ5NAWePQAfhkjTdvtNSAJG5JG6QnaeSPmhwZD69APXI4uTHlusVMuTHHyk67SCPxGURRqALsgkmTe24nrflXPJ63WbvlM036Fdi/aSg2f1I+D+LV9xzw2mWJo3cNNIzbQzEeHwsxKr0UUv0RZ465YabUpJew3VXwRViwOR1ry6jzzbcnhGssvPsptX7LRysHaSXfXie1Jb0uxQryAocnNP8Ac2P7WX9if+udNlVrdbIJhGm0LSks3I57wnzFUIv/ADHplvy5/al9NxX3uL12N2OulDhWZtxBO6vK+lAeuY0cDLqJW2sFI4JIIu7O0A8A8H7x+3HZWueSg5Una10KpkkKN0YgqfL9U/cImlC/KgY2YrT2AYr3ce/Q7yuvvdGr4ZS227rXHGYzUdBjGMhYxjGAxjGAxjMXgZxjGAxjGAzTpdKkKCOJFRBdKoCqLNmgOOpJ/HN2MBjGMBjGMBjGMBjGMBjGMDxFEqClAA9AAP5Zpm0ETks8aMT5lVJ/aRknGRZL5EP+y4PsYv8AIv5Zt+Rx7e72Js+rtG3n4dM34xJJ4RpVydjKARC8kV+SsSnSuFPu/wD02n45q06S6ckmIONqruiY7tqXtHdyHgCz0Y9cucxWX7X5V6T49lHrfaiKIqu2ViQSRt2laNeIOQf+Mgv7T6dm3GGYm7+h9Vl58fIpm4+OXfaPY8OoKmVSSoIFO69av3SL6DIn91dL9Rv3sv8A7ZeXi17ysM8fUb/xs02dg6+LUGRo0ZCNgO6ugB2gUSABzxx1Pqct8hdm9lxaYMIlI3UTbM3Tp7xOTczy1v2b4dus7eTGMZC5jGMBjGMBkLtTQmcRgMVKOr2L8gRXBHHOTcYFGexJim06mQknliX93aAQAHHnuN9eR6DJ/Z2keLdvkL2bs7uPgLJ4zZqtdHEVV2otu2iiSdos9PIWOfiM8/2gnzY5t9tDabG8EruH0fdI58xgS8YzF4GcZi8XgZxmuSZVrcQLIUfEnoM93gZxjKDtPtyWDVwaYxoEnU91MzsFaVeTCwCnaxXxLz4qYdRyF/jKyXUapWj+ZhZCwDlZW3qDxuVSlNXUixxdWeMs8BjNGp1Ij2A2S7BFA6k0WP7FVmPwU5uvAzjGMBjInaes7iJ5dthAWaztAVQWYk0fIHoOtfeMDW7IzJOBGBV87utV0AJNmqrrgTMZFi16NvIPCFQSQQLZVYVfXh1/bmpO0VfwrYJWQqWU9Y22ONvUkNXHnfF80E/GVvYWoeSMs+/3jt3xmN9vFblIHPXy9BzRJsVYHof6HGBnGRl1yGtrXbmPoffW7B9PdObNNqFkRJFNq6hlNEWGFjg/DA24yJJr1G9VBZlJG0cWQivVnjoy8/HPXZ2r76NZNpW93B+DFdwPmpqwfMEHjAk4xjAYxjAYxjAYxjAo5Y+81E8m1qjgMakhhbOWaQKD7wpYuRY5+ByPFC4dJCwKSSafuwGY8LGSTtPCmy3I6gL6Z0mMCs1vZ0kjllk2ihxc4/0TKP4ZH7c7PnkjRIXAZUcbt7od+zajfSsXZN2elHqcu8YHJdq9mzjeVLBpZmPhmmKLGYGWjSnYQ5LChW7bz5Za6vSvNp4BGrId2ncq7sjKiujOjFbs7QykdDfXLjK3tPs95XVklZKUqwG6mBZWB4YURtIv0JwKeLs7Uw00joEHycktqJKBSaVn5ZfON41+O2jwBkn2eheFl7yRGWSONE2zPLukRpmcjcORsKC/8FeQzfJ2QxM1Mvj6OwBccrwaAJqqB3enHGbOz+xEi2MxLuhba/iBIJet4umapG5+OBbZRe1ukTVQHRkEyS/oyDTRMpBE4YcrsbaQfM7R55Lm7ajUsvJIcpVhTYVWN94VFUy+fNispe2JNOZpTNpUaUIaZmoyRRxNL4SBzTNtK+W8HndgdGZRCid6/wBRNzUCzGlHA+kT5DzOSRnLHTdmQyLOYUWSKyHMTkx/RNsV8HUda6g5br2qGICgEszLHe4Bise82Qp2+nPofuwMdpCptKxut0iWPIuh2m/L3SPvYDzyDp4n0iwbj724zu8rtGpCsVG572ruYC+DSj0o3emmWVEkA4dVYAjnkBhY9c3YEHRF5YImZmRmVWNBQw3C6plNdaqrzGt0cjQTRpIxdlYIz0NrV4b7tR4bq/xyfjApNF2Uzb/lPiU7xsMjSKVYptDKwAsLGvryz+vOztqLvW08G1iDKkjEBtqrD84Lbpe9UFdeb8jlvjA5ycl5niTvA3yqJyyhwqoscTsWYcG+7KVf0+mZ0g3vpQv0Z9XKfjGWmQfgWlQj1rOizG3m/P8AL/k/twPEyEggMV+I22Pu3AjIXZeleJG3OzEtKQG7uvFI7A2ijqCMscYHOwaGaObfIVIllikYLdLII3RwOPc2LEATySGNC6yPouz9Rt0zoaTudMGRndCCiPuFAGrYw/grjz56rGBzMmnCCdX8SLvBMoZ1ZRpYVJfzYGjfrzlr7PtugQhUUHfQQUtb2o15EiieosmiRzljjAYxjAYxjAYxjAYxjAYxjAYxjAYxjAYxjAhp2bGBVMTuLbizb9xFXuBvpQ+4Vmw6GM2CimySbANll2km/MrwfhkjGBE/s2H7NOldB9bf/qAP35j+zY+SFAPJBFeAlQhKfV4A6emTMYHiGIIqoopVAAA6AAUAPwz3jGAxjGAxjGAxjGAxjGAxjGAxjGAxjGAxjGAxjGAxjGAxjGAxjGAxjGAxjGAxjGAxjGAxjGB5ZqzHefD+v6Ge8xtHpgamn+B/rnPXe/A/w/HPWwegxsHoP2YHgTfD+v6GDN8D0vyz33Y9Bgxj0GB5734H+GY774H1z3sHoP2Y2D0H7MDwZvKj/VfnmO/+B/oXm3aPQZgoPQYBHv8Ar+vTNYm/nX8uc2FB/wAEj+WZ2j0wNQn/AJ/l+eO9Pp/XP5Zt2jMbR6DA8LLZA/rz/LNuYCj0GZwP/9k=;" vertex="1" parent="FQCKP3OQzJxXeX6VMg1W-15">
          <mxGeometry x="52" y="20" width="196" height="140" as="geometry" />
        </mxCell>
        <mxCell id="FQCKP3OQzJxXeX6VMg1W-25" style="edgeStyle=orthogonalEdgeStyle;rounded=0;orthogonalLoop=1;jettySize=auto;html=1;exitX=0.5;exitY=0;exitDx=0;exitDy=0;" edge="1" parent="FQCKP3OQzJxXeX6VMg1W-15" source="FQCKP3OQzJxXeX6VMg1W-24" target="FQCKP3OQzJxXeX6VMg1W-19">
          <mxGeometry relative="1" as="geometry" />
        </mxCell>
        <mxCell id="FQCKP3OQzJxXeX6VMg1W-24" value="传入接口" style="rounded=0;whiteSpace=wrap;html=1;" vertex="1" parent="FQCKP3OQzJxXeX6VMg1W-15">
          <mxGeometry x="100" y="180" width="100" height="40" as="geometry" />
        </mxCell>
        <mxCell id="FQCKP3OQzJxXeX6VMg1W-36" value="api接口" style="rounded=0;whiteSpace=wrap;html=1;" vertex="1" parent="FQCKP3OQzJxXeX6VMg1W-15">
          <mxGeometry x="90" y="240" width="120" height="60" as="geometry" />
        </mxCell>
        <mxCell id="FQCKP3OQzJxXeX6VMg1W-20" value="后端" style="swimlane;html=1;startSize=20;horizontal=1;containerType=tree;glass=0;" vertex="1" parent="1">
          <mxGeometry x="280" y="530" width="301.97" height="250" as="geometry" />
        </mxCell>
        <mxCell id="FQCKP3OQzJxXeX6VMg1W-22" value="用户api" style="rounded=0;whiteSpace=wrap;html=1;" vertex="1" parent="FQCKP3OQzJxXeX6VMg1W-20">
          <mxGeometry x="169.14" y="160" width="120" height="60" as="geometry" />
        </mxCell>
        <mxCell id="FQCKP3OQzJxXeX6VMg1W-38" value="" style="shape=image;verticalLabelPosition=bottom;labelBackgroundColor=default;verticalAlign=top;aspect=fixed;imageAspect=0;image=data:image/png,iVBORw0KGgoAAAANSUhEUgAAAXUAAACHCAMAAADeDjlcAAABBVBMVEX29vaLxQD////5+fn8+f/8/PwAkP/29vWPxwCUyRbJzM5mZ2IAiv+2ur9maGGIxADu7u7W5fiPzgDj7Pe5ubkAa70Ajf9iXWiAh46NywCKkZcAhf/Aw8ZjYGYAXbiAqy5+vwCQwv/i5OVlZGNnal9kYmV0tP8AZLubx/+r02GjqKyboKV3f4eusbVpcFz0+erN46bi7c6i0EyXyy272oKdzT5qc3zZ292IvhyHjpWEtif5/O5tfVd9pTVvgVSFuCVWp//P3e9rmc++2v+rwuFVjMo3fccAcMi/3JLU57ez13Tb6sPp8NzK4aCo0ll1kUs5R1NOWWNqdltziU95mkOAqzZfVG0gneRlAAAH4UlEQVR4nO2cC1fTSBSAQyZDIKXNWIUmMbXdQHVpEiiIDa3iY18qoq648P9/yt55JE0RpNBHItzvHDmdZibmfLncuTO00TRk/pgP1paXlzck8Kro67kfcOsby08Fbx+j9cUA1jfe6ooHaH0x8FjX360/4/yh/7lW9PXcD8wHj5/q68/WOU/eGY+Lvp77AVj/ja5Lnv2lo/WFwK3ryjrG+qJQ1p9w/sa8viCk9X9kDfMQa5jFoKz/znm6gdYXg7T+fmMNwLXpouDWH75/v5xS9PXcD/jadG15Ga0vFIj1tTxFX8994eEYRV/NfcEco+irQRAEQRAEQRAEQRAEQRAEQRAEQRCkKAyDwE/8o+EiMczeh55pFH0Z9wujt2rb9upH1L44jL0X9hLH3t9D74vB2D22pXTQbh/vovf5Y5gfMufC+9JnQoq+qLuO8XE171x4f/4Jw32eGCf7F52LNPPlBL3PBxOSy7F9iXTh/QCryLlgaJ+XLncu03sP0/vsMT49v9o5pve5YJx8uSK55NPMtkjvuEkwGwzz4FrnmN5nDOn9JKFf8L6CmwQzIVv+T+j9xZ6BSWZKjN3tiZJLTnsbNwmmw9RObuhceLdPir7wXxvjsrXo9dr3DcwxU2DcwjlYX8XUPg3Gyq20r2Jinwa0XgSTWHfduVs3NUI5cqcnt99DZIvmjpr8PWiJw7n3s250vFnC3aNJrLe+1i96n3ms02rkeE7kc2NBV1fvkqBLSJcS5vGjg0D67FIaR4PQNDXq8/f7VdmfaGE0gJOE8rbBKIc3Y3rZf1goE1lvNM8uaJ+59b4vgjQeEHAZWmlU95lGHD3pJ/woc+CmmCbzaORDkMPLqGryYK5GojeT3WjS502SRIEIdT8iZZv5J7LerGzWb22dTdCH9pkMSGp51DShKVq6lxCwzhy1x6wPoK0xL0xEb+okalQQwQvqBSpBBQ5vRipTUb900T6h9a3bWjfZo2vzqkm7VtpJvCSszz3RKugyieexNFYpf5850iLxqzQ9QdWHE0SpXN2BH0GYHiXOfbOuTWIdksiovweKiBXqKmQ10o9pZj2Ge8L+ZWrUKHNwsSRK+9EQegRedk8GZbU+VqeMbxK487ZOrOqoDx2In6FFSV8e/RaMjjIIYPmLwGfakUzqMfiX5O3SvlY22RnKev3oKPNqtw+O25nf+vDNMLNeb7XqM7du0jCgJEXvcskmZGVH2gb5o8mQQhZhMohJ1cqNiiHjs37MRoUiCfo+K2XdqKzXhzvNxukbKbS9f6Lre/vSu2t/bzROK9K6e/iq0Xh1WJ91rNNBXB0RJfJDrd98GapjWZl6hFvnt4HG3dyoAZ8OiDVwQotlVX/VceJEK6F4bt1+3ajUapXGd55YDj/Kh0d+5A33v8YmHFHWv/LGZuPrzK07vpVDZG2SeKGqwi+xLl52qz+OoloSDwaWGkEoS7qOF5Qu04D1emezVmk2K7VNcNveTZ87vtteck+btUqnI63Xtzq1GjRqnZ36JNbV7z57pPLA1T15yTdCpg8W6bEsUUiUG5rPMHFCx0aJbiYU8iwM883AqZZNO1h3IZi3hq2tSgV0tl+C8IMPyvoOOD466tSkdbB/diZvzvXWSfJonODqrrE1EkssTaR1RvSBSOzkW67i58ZT6/k5mFiMJFk/HZZZ4jzyGJxsQhuLgluvVBpD1z1rptaP2+2D1Hqz5bpHHWW92Tp9NTw/PZwowzBJ8Ei9uLongdI6mzApD225OiV9/qQz8m10Twivy5X1NL+rUZBxEpI7IfVG5/etkqX21PrSytHIum0fp9Y7YP0std4Yvn49PLrRbEomyOvcdOqPJFAPUl8UhaJgN8kgzBKEHhEts06d7E4SKM5zsS+sd7OCs5zWazWw7o6sv9w+fplar2y1WjWRYVzIMLVWXRb2M51N5aJIfM6GEMgGanmkSfvEsdK8rMd+zjpMuGpxBTmEK+6nsa/DApcEA100TVMfsJJtxAjrm+dgvXUurGez6QlY30rn2U2I9RrMpo0dWV/O1jpklC7hUyMNRN0Ype+LBO3oYcyPUhqLm5Na12jV08Qo5oiE5DtMNKnPF6M0DOU5SbeM+zBu4/QQAth9s1MBo3ZPSu/xylHUlJBZXovF6neoHCvnr9zZW4eo7nerftXzGJTdXpagNT6rOqAxCn2/K/eBR9Y1avVDPkqtp6gVedDsRnLRykdBM1TDygSv14dqWVpv8SVT+8Wern96LldJ9Tc7zaaK76W6XCXNIdZ5kggsK1E7j2N/1RBbLIQfzapP8+IokjZZwvul5ToJEisJSvih2Mt2v9rb27kdgdxeAdyX4ex3BBS86r4s/apV0ljFP+pnXlgJXFgZ/HyhUBiX7jmO7X6t/Pj3uxtZt67v81Ou26ct2UQ5EfP/a/W0sVa+3fHpKf9nBEiE1hdvXUvKmJmn4xewfvek/wrW7x7m7azbK2h9GowbfWMgs/4FrU/BbT+/vlv0hf/iGLvb7Zt+V2MbpU/Nbb6XhEyP0VuZ/Dt4PXQ+I/D7pkVg4nerCwKfI1AIBrnumRlFX+Hd5Or0rhI65pa5gM9CKgTD+ITP/SoAol14xp39QUPp8wef51gM+OzSAjDlYx3xOb0LB59JXQzEIFigIwiCIAiCIAiCIAiCIAiCIAiCIAiCIAiCIAiCIAiCIAiCIAiCIMgd4H/vTMFZm69aHwAAAABJRU5ErkJggg==;" vertex="1" parent="FQCKP3OQzJxXeX6VMg1W-20">
          <mxGeometry x="12.84" y="40" width="276.3" height="100" as="geometry" />
        </mxCell>
        <mxCell id="FQCKP3OQzJxXeX6VMg1W-39" value="电影api" style="rounded=0;whiteSpace=wrap;html=1;" vertex="1" parent="FQCKP3OQzJxXeX6VMg1W-20">
          <mxGeometry x="20" y="160" width="120" height="60" as="geometry" />
        </mxCell>
        <mxCell id="FQCKP3OQzJxXeX6VMg1W-28" style="edgeStyle=orthogonalEdgeStyle;rounded=0;orthogonalLoop=1;jettySize=auto;html=1;exitX=1;exitY=0.5;exitDx=0;exitDy=0;entryX=0;entryY=0.5;entryDx=0;entryDy=0;" edge="1" parent="1" source="FQCKP3OQzJxXeX6VMg1W-6" target="FQCKP3OQzJxXeX6VMg1W-24">
          <mxGeometry relative="1" as="geometry" />
        </mxCell>
        <mxCell id="FQCKP3OQzJxXeX6VMg1W-50" style="edgeStyle=orthogonalEdgeStyle;rounded=0;orthogonalLoop=1;jettySize=auto;html=1;exitX=0.5;exitY=1;exitDx=0;exitDy=0;entryX=0;entryY=0.5;entryDx=0;entryDy=0;" edge="1" parent="1" source="FQCKP3OQzJxXeX6VMg1W-40" target="FQCKP3OQzJxXeX6VMg1W-39">
          <mxGeometry relative="1" as="geometry" />
        </mxCell>
        <mxCell id="FQCKP3OQzJxXeX6VMg1W-40" value="db" style="swimlane;html=1;startSize=20;horizontal=1;containerType=tree;glass=0;" vertex="1" parent="1">
          <mxGeometry x="80" y="340" width="230" height="190" as="geometry" />
        </mxCell>
        <mxCell id="FQCKP3OQzJxXeX6VMg1W-44" value="" style="shape=image;verticalLabelPosition=bottom;labelBackgroundColor=default;verticalAlign=top;aspect=fixed;imageAspect=0;image=data:image/png,iVBORw0KGgoAAAANSUhEUgAAAOEAAADhCAMAAAAJbSJIAAABhlBMVEX////57P8CNTD/yij87P+Q9azI7NmIAAAAAAACJS1h+pACMzBn85XX7OgAOysGIy6b/LYCLS8AdTYBvld8AABN8YHz7PqAAAB5AADn6ur/8f8AAAnDx8nO0tP/9P/u7/Dq4PIAKCAAAA8ACR3TkRHf4uOzdnbv4eEAHxSmW1vhzMz27u7JoaECHiwAABVFU1oAEyJjbXOVMTECKS6boaSorbB2f4P7xSbTjQC7iIjUtbWZPj7/xwDfnQD0vCPbnBbprh2XOTmta2uQIyO0sr/y/vYA7WEk73CXnqGFjJC0uLpPW2E1REz4797dq1n/7sQBSjUBkkjQra2iT0+OFxfBkZHm1NTc/+cA0FvWz9+mprIAGgwROzg4UVItSknHw9IAHRwsiVdkpoHF+tXP7OHS+95n65es+MKw68kjN0Drz6XlwIj80WD15s//4JTw2rnaokH/0Er/23z/89TnxI2z3MYAXToBgUQBoU3fsGPXmy4AaTQATi8A008AWTOP7LIALBcBsVIlxt14AAAQPElEQVR4nO2di1/a5hrHU8QSG2vqiCYoiIKCXAW8cKuI0Kpc3KwIs3Vdzznt1tmdnXZnO61bt7Pjf37eSwIEwjVvCPHD77M1F0Pe5/s+tzfZKtS9uy5KbwM014TQ+JoQGl8TQuNrQmh8TQiNrwnh4FoSRfzGQ4os4dLK0vMnJwWgF0+er6yMBSVJwpXVF6WrzTVRm2vRJ/fGgJEc4crz6OaaqUkMgCysrhAbYEiRIlxajV7J+LDWNgt6+5EQ4cqLTQU+xMi80teNhAhLm8p8MFiv9nRFJEG4tPpNBweKbiwRGGRoESBcWjUx3QAB4kv1owwt9YTm1e54GFG/ckPAh9/28CBCjOqWi6oJV6Jdc1DS5gu9ENUSLj256gfQZLpaJWLv4FLtw748CMS81MmJKgmXCv0Smjaf6FNtVBKudu70bfrGiIQr/btQNyeq9OFaH52iLn0yURXh0pMBghSU0+ekrB5EqghXooMAmtZO9AhTdVE6kAt1ahhqCJdeDUZo2tSj66sifDFAJUWEr3QI026E5h5aiW7PD6S/vVjqdc8hNQQh+NTiw/s99PcvBtQ/et1xSD2815lSmdBsfjh9fDw73UOPBlavOw6p2ePjvx52YFQiNJvvHz94TRlLrxcW3igiKhCaFxdmn+pt8BB6ujB7T4GxndD85ug7vY0dUq+PHrYjthGCCDWiA7GeKiC2EprfHOttpho9PbK1IrYQmhePjOtBqKdHPXxoXjBqDkp6/b25G6H5/qzeFqrWQksqthAauMpI+vpBF0Lzwwd620dAx05zZ8Jpo61klPT2bRdCQ3cKSU8XOhMu3glC6rgjofmh8Ssp1MKiMiF4wnozrbdxRPRA1i+oOp/zh+mFR3obR0SzCoRm89vZ6fuLd8SH7YSQ7z5823H/jhKaFx/8gN4A3FVC88OFRXzmjhKa38xKr3AGInRqZ6FatRDaZuuHAxFu7Wpnokq1ED4wD0V44lre0NBIVWohbDoagNBBsyw7roHamof3hiB0hgFgZEtTO4eXUscflHArBAjZ8I6mhg4tAoS7LhaJtmlr6pAiQBjBgGwkqq2pQ0o94Y5bJGTpsayn6glDEiAb2dPY2KGkmtDhYhuI4jmnzWZrah7yo4FkQ5KOnPhwsJupJiygNCwjQpcDn7OXabrRPAo0fW0fyKi6Nsr0Mg10jZdMuxEaiR1kBaWasASjNFRChO76yK5QIynD7PLwq4FwGMya7YRm0e0crmvw50aJLvR/B9WECC0UvUZRKg3sXN5yS/vFkBpC9zKK0Y2wC97DsYxDIzJAUVNN6MJo17JS46TtrrC4f71DgJCyo7CXCEuuYt93UE2IekXkpBySE9okIzZoZ0QkdERD4bK48inuUo6SOxIVq4i95HZHC4W9E/E6l3SdREhd044G4Rbdf2KrJsRoO2jl5j5pENqXy2g3WgJWIsI9Omp37C5HbMjE6yK969h1uaQfORxResterF8Xdm/ICE9chTqhjb7uG1A94V4ElRhUcMLSzDpBnuBccYKpj9AQo0AjtzjdIbgpRdxwU0Q1o0gj50eRZ05oNE/OSERGWHSVIGHZ4XDssqUBwl41YRE+WLiLUUhYzzdIeOKCZu8AnhA875TmfReRRl2o7tpouNTbwoXDgQ6k64qItE5od5VR852Bi6et/tOQwJpmGRLaoStDJekcJHQuhwEYuwMJbZK3EBSMtCiGciKoa+RkHHx26TonXabafYii1Bml+18DqyeEbGFE6KqnPyREbnLQlEh4QkvNkmYRoa1BWKLRUsEOD3Ya14UoWR7uNSoNrjujInQCJ4YdYGkTKjfOQUIHcEkJRioLrWyy/LqV0IFXQGX4KRzE9ZmoE6LyWSfcc0lFbQSE1EmYDW8AwqYubEP7164i2iJCOy22kg0EJSMEIcyenIRQoXE0ris1ETrQvOhESG1FXBs7EVfTMz4mBBUfuXUGWRkS1+V7CEROGL3ejUZ3cJ1ixaVCgS42EbIoLOuEIXDodPS1sCFBCLLCtivLfRu23x1GNQ/XWDvyCXAXZsLFBRMWm18POPB14uVuF8SwR3CLd+Am69yCjrYX7P00DSKEzshGoRkQNO8StHkP1hn4bBF1IJvDe4UyDsJdNw2XM7Yo7QauZ0PoCWI5ipxiX17eK2whdNseHQ6Xr2l6D7HYy8vLbLnM0hGY0/ZiXz2DCCFYnZaajzbsdjS9NmRCERzheCoW9nbEZabdXoRNEv4MXMeWwda+46Ib1+FmAn8ufRrMnB1L9LijrxdDhAiv+058Je3hkKV2ljV4S0CIsKTqrb5UP+r1lqQIERaGfIjHCsvKLGERIlSnAh2FSVnQwoXjQUjtuGEtLWvgwXEhBOV0Q6uXreNCqJ0mhMbXhND4mhAaXxNC42vsCN8FCN9wlITvPvzU44rTHxP7/yQ86ggJTx9nEl/KGE9Pmw/e//h7IhufenxKEdUICf/1eGoqs7/+43uIcPr+t/UE1IcvP+Cd/f1sZgro8Vdkhx0h4c/Q/ql4dj+ROABAwF2Zg4NsJhOPT8n0b7LDjpBwqkWZ9YNM6zmon8kOOzrC08dyvgNlPhCmRIcdIeEvzYTxg/WsMt8U6VIzOsKvmgjjdb4MyMNWQrKlRh/CzIHkyYMD8G/87hHG1zMQU/RkRh6xd4IQ0jVV0risqhqW8Bd5LZUpuw6As3GDE1JdCKdAMmazoh8f/0J02JGvaZTVKK5T8YRRuwX1a4cOjxNzXdpJ/Ep22FE+PX3Y74KYPRAB3xMedaRPwL8mWrt7cypmUYiSBhzxM/5PiUymfb0mlhjYI/ffER+zhXC1Sf/R4C3G6fp6Jg7WMbJVN+r/aLP/G/khWwifuTYl0V9o8bdkYZxmDzKZ9WbEzDqK3mzigwYjthBaP85Lv2xsXivCOFyHgh7ftBwVERMaDNhKOHN5Nq8p4btEFtGAMMXVE8Mhn2bWNRiwlZAxXZ5ta0lInaJ6ms3CJwtcZ0TE/f1Er1dxQ6mF0MRsX36KMBoSUl9mxOaXBX6L1xHj68T7BFYroYkJ3VjPWEY7wtP1/YMDXDrXM6gJgqeneHyf8FKmrjZCk2nmzGr9yM6wGhGCrohWaDgTcXMEz1I/ajSYEqGJYc9urNZnN5r9ToXfsiAJszgbD2BJJb+SaUiJEDDOsKbPt9r91ogPifXfM2ANCun2EwnSi22ZlAmhtjWLUqRTQPn+18R+4vdTwq/xW9SZUKtKI5fGeJT+hNprQmh8TQiNrwmh8TUhNL4mhMbXhND4IkNYqwb91LnH40lWz/2k/8c0lVJNGKj5U94Kx/F82mexWHggS6U6RpiqCAPBCkTiPL6kv8JbGgInY8naKOzvLRWEqTQvUsWqaRCpMRHP50kDRPhPLjUaiK4amjBlaTiNT3GA5fxCPDqnKO95Be1aqt76JypV6jwGsEEAJy94iwcFcgpEQT4JdgIxPxUEP/b54enkBcenK5X0IbgtmMjDILpDAH4OXxA85PkLNIONDxEl9OebgxIkHucNxOrA/GFaOuDzPonRUvEIuSSw12uxeJLALnDOJ4DdisB7qYBQTfO5pI8TgNkWzpMCs5FPBqmYkE8mwR9wUE6oJD28ACYkD/aSPj5GgZ+nq0mLcE6WMOCT8QGOao73+yxKinHS/FosF3Dj4fkK3PqA34NcDs0XoA2Ip/38BZXkkM/yPLyqilzGVeAVaLIqQioliE6lcngvzzVihQChv52DT+a4iiIhxkKEPGL18jyKTz+XpJAfgZJcSrKfqnDUIYeuqHL+gHCIr6gI3ionYnGxc2naAhyaFirFJQkSegQe9QQ5YsXDK/HxXL3aWHi85fJo4+VyNexCuO+jOHEqPJw3xqG9IJc6F6kAQjDNiy2oAvI+jyv1uXj7AJcmRhhI+4KpmreWSh5CpLTP54M5d1ip5BpOrOTSKB/5dFOlqROmRSpPSrKf4mIUgBQJAznsIuC3pOSsGue5EB0OPF4LCkIasiX5Ss4HBVOSFGFjtwaqBjQgwGPja6IXc1XYKg495/LcaCc856QCwV0EGoRer2BJBbygLoEDkRB4+UKK9ypwXCDJC3wVJHUsjeUjRihTUMC1HfvCjwk9Pj4XVGj3Sj6s4lMBmQ+9VM0iCAKfhHdW8KGIncpzvirXc12hctVWRWkQwGOLhPlYVfHaNsKcV8pDkJDNPqSSlpoXBUA9D8FOhRPjJ13f4T28FOdaEYpBG5AIYQG6yCtHTDshOBUQqVLyKJXsDohliUoL3qDocehwrCB3ztdLtVaEyFZIhwj58y4rbgXClICKPSiNVDNhQIilgOA9k5yHQhuf1G4CMcFfwxl+KICr8cf8RPthq4Ipyp9EhF2fKCRCscV5QSGhqgLvy+UFSwCsaSRCwUtVeQ4kIgebHFj1+HIWAc6K1yLEcmDREwT5b8mBdIeu9glcxVfhhY7rNhKE5xbKAgOo1j3rPR68zYnBloOhWPPk85Vg/RDeLef1cUnow+oFrLUpXz7vE5tqMJ2PebzwoQacjHnQeP5cLB/rssYnQgjyT7m4DKekUC+gHXtA/xpHQnFJQzVyU41IEKYO04ed1/aDKy0toz1cz17QW+P4JiolWIL+mv88hiutSo0jIeWPCVAxIoExloQgA721jg1uQI0pIUFNCI2vLoSf78bfVn9g60TI/HEnv+/J1Ix4J7+zq5kw9KfexpHQ17OdCbdv3uptHgE9+qEzIfPHgt7mEdCRLA3lhCBMv9bbPtVq/SJSOSHzX+M78WixG6EpZDV6Jk7/JQdsJTTNHBk7Tr9baAFsI2TODP2Vx1+3xmg7oWn+DwN78XU7YDuhaX7uT6MuwKcXFL4+vp3QxIRuj434rbmvj9628ykSgnIzZz1+ZKxY/W76aLo9QjsSmhiW+WT983jhgb5a6FfHx9/fNyvydSKE6TgTmp+bM938d24kYqxM27n/rS72KfhFuMp8XQiRK5ntZ1/MM6MQa2Xbzq3trXQyewB1JQSe/Hiz3f0KMmLObtvHYa5WtSc0mawzmiC1aP7Tp/n2s2snS9oTsqMhnLmdYxROfzMCwu2bzwqTS1yhS1bp9NXzjgWEGCEzZ1Ucm6zmPz1TTHcSYdozD1mrYvyQVeiyQy6U1FfTnoTMmTVEGqhV8190qthrI/Chib39qHUmbitnIdCm+n7Rm9DEXs5rG6cha8c53Hyl2ol9EDJ/XGoap6Fnzzp2pLUnoyA0bX+2hrTzYujZbecJXHsxEkKAeMlolItM5OY20vnHBNpFX4Sm+bPLz1q4kZk5u/zULQVGRggeGG+sH0PbRCGZeXbu1jrXdWU/qiiF2jbdXN58nJ8hJXb77Bn8bRzdJ21ElQaLmWE/31gJ6vYTw/bK7tF0iybIbWIuBNruo3iNpuPrqZGs2nRVdAQrb11FoJSOOeHVc9WAY074LYGXbWNNSCJIx5xQPd94E64VCLhwvAkJ8A1EqP0LKbk2SWThOBMyL0n8V4txjlICS9LxJrxS/1Qx3oRXL8jE6NgSkgMcU0KCgGNJuLb2ihzgOBJeRVcJFZkxJXxJ0oFA/wc/Tukt3Io5GAAAAABJRU5ErkJggg==;" vertex="1" parent="FQCKP3OQzJxXeX6VMg1W-40">
          <mxGeometry x="40.000000000000014" y="30" width="150" height="150" as="geometry" />
        </mxCell>
        <mxCell id="FQCKP3OQzJxXeX6VMg1W-47" style="edgeStyle=orthogonalEdgeStyle;rounded=0;orthogonalLoop=1;jettySize=auto;html=1;exitX=0.5;exitY=1;exitDx=0;exitDy=0;entryX=1;entryY=0.5;entryDx=0;entryDy=0;" edge="1" parent="1" source="FQCKP3OQzJxXeX6VMg1W-6" target="FQCKP3OQzJxXeX6VMg1W-40">
          <mxGeometry relative="1" as="geometry">
            <Array as="points">
              <mxPoint x="570" y="455" />
            </Array>
          </mxGeometry>
        </mxCell>
        <mxCell id="FQCKP3OQzJxXeX6VMg1W-51" value="前端" style="swimlane;html=1;startSize=20;horizontal=1;containerType=tree;glass=0;" vertex="1" parent="1">
          <mxGeometry x="660" y="430" width="300" height="290" as="geometry" />
        </mxCell>
        <mxCell id="FQCKP3OQzJxXeX6VMg1W-55" value="" style="shape=image;verticalLabelPosition=bottom;labelBackgroundColor=default;verticalAlign=top;aspect=fixed;imageAspect=0;image=data:image/png,iVBORw0KGgoAAAANSUhEUgAAASoAAACpCAMAAACrt4DfAAAAwFBMVEUAAAB93/////+A5v9+4f9/5P9+4v+A5//b29t73vxvb2952vgKCgq6urp11PFMTExwy+cvV2NovddYoLZZWVnh4eFtxuBIg5QoSlQzMzOsrKw/c4MeOEBisspz0e5CeYlMi54XLDJSlqpdqcA3ZXJGf5A6OjqcnJzDw8Ps7OywsLBgrscjQUoNGx87bHt3d3eJiYknJycaGhoKFhkVKS/Pz89QUFCSkpJlZWUyXWksUV4MGRwhPUd+fn4fHx82NjY49DIvAAAM0UlEQVR4nO1cbVviOhMGk7R2q4itFgQKtYCIvKyKusDunv3//+rJTNI3mrp6PStKm/vDHpuGXu19ZibzltRqGhoaGhoaGhoaGhoaGhoaGhoaGhoaGhoaJURv2QrG54u3TJ0PQjcczD/6jb4oxn2TMMZM0gz/QsHIt03GDD63393Pu30pLDyT1gUoI14xBavQJkY9mmo6e3zHr4FVg9VToKRRQFZIMxPrzNvvi34+HEOIE2EGlfLiKdRwaUuiDEa4usJU4u7/bT8TXRMEpBGMNt2wSZgka5eEJ0coKSXWbHw+Pw9sINislnFvgKBEZuc6tFFeOHft9KSu0D1KvKUcOWnS1O8qgREIlZ0aaFmSlSAZ84VImd55MtaDaeR6X+/5BeBzRUqzwuESJIbEotZH8gw7a+6H/Jcs+8tywwJtW2XH5k2C3PRRZs4pRfM1O8nO2pJqaeDcVH5vKLiqb2u1AcqYYY1ykzjL1NrHS34NDLhusTA/vsUVjpJRYKIyeoqYB3TX7H38O34RhJwqslTcWHkoWAzNlDks/G1e2MqKGUhGW33LjEOYQDkBJXL8gS/3tQCuOntS3wule04LJGdUoLwlhcdtNivKvTjoNBhFbOASWC2q6Ep9zyVCqswCJWsDVdUJA1+hKgRbJbx0ld2vHFVoq5QKOECmbMHVuWrGebUUEHwjpgrkzpEp4xcmHqilmjIilYpsIJBTpVKuQfUo4d56C7lqKH5bMWchBKo2+fEGpu7QS8AgRxXsBdVyQVtqycDMaOR5+kyd8RwWu69lxEhpmlGQSBzNeEhcLuMOfJI31cNKgZ4qs7BB85QqMuA6SHYjY5sPViizUAPl2rHZK0uEM6Nld8DRXW7GMIv2d6aRLJ+lB6TIzViLeqOWO2uIwg2DKiqAyOKE0Z+F403sNqBbpUw5lBRgmwlfAhebwG8aUOGKi6I5UIPTRmhzGGxWYkUg1fEVajXQLeoPG1gGpIUspQnjjJmk70JMRKqzANZqc/SadiXJ4GAp8MtdGmGA0s9+/f1h6VtZDROcGY7vhkFr3AUMxq3AdX1PGqwMZ9QeVsIH3Q6tVLcG1yrWnM2ACKZMF6Bbyly/T0yW8GUQyy27Frb6ZvLBlDXdLoSCmJRRBXzcOYDphs//ao+H/VSnh2E2B3t99f0isBhN2ZxmNAyWy9yqf4NJhih3tbDgd1IoKbFbe3nt/SOwZBsHV58huOIyPnkC3tTqB3BgtZRF+w04oE3fYpItYpfRbxg1pEQRw1/Kgrr4Tj/FhQJPNGHSBX+sVVt1nah7hjSVCcBDhuzVoGYjQFkaxQX187SGqdDCMBpjQQgATfTcn0KbSLLK5buLsjEnqhlTgm0LwFq+D2gxn2cS7/GMrZmycLVBQ5DFGiUqNmPGnC94/ZTsYNK4Bd0J9Uz+oOfaJkc/TOqEWzT73JUasmyymJOFTSDlSfWJDgSjnlmvRjJFYGddKtc0ItsfxINQjYYUA431L0KIBp6aJfEbhEwRZycfZ6M0Qf6XWnFnUDPxnKjpR6NPsCKQ7kiRgOmhP0/NUsgVqo+iAwFWM0M4DbG4eZluYhJzhdX5PtSd83lmF1OCrAz2qkHV1qRtSlc0SfKFpJ5Bki6GRYCi+3mSexBKrdHMjR8cAiwnqPSjKT13EhGyyHao11Ptoq2oJ1vlGSBX+Sz8wQHNdqC6M5BeZJwSDsguVYkJasgBZZDssrQTcahAV6ivvidSMUlPmpdL8iVCNEYai7LqiWt6wMCSX0FUG+7UGexdptLUYO6dFe0uASftFYf/IID9iAVh2gIkhSUuUT51nOIRbV5RVatLSlCdhy8s+v+9ZFlDbe0ylTZAqJ1FpKPsHrobOnqlz1zYpmRvQzNvq2LP6lx4/AVPwmLZoadFV+Boq9N2bXPHdLu5Cldi5TxxT71nZEleUc7DAcZv9k/FnaH0leJYuW3uMEXjfrWNvKVsmO1hRuvw29N6WMfq59sZT+Lkcaxlzo5YJY0wkW6qNkJc21jxyrvxBwd0LA371+44lk37mCyIrMxTdg004ohniTu9+nXVzoAt/qgEzjqHj/FyboHCOvEI0laJ97RlKa4MKw6BG6h74N7nDHtAyrT1VOQLTCdjkkExuTqhfibp4nYjCm6o6cXJvcinwixgJpczlztN/FpJ4IgtWZnuM/h8WPygHpFuIArgnAA4JiCRwp9Q0oJMH24jTHmaK1dUX83Zh3/C3uBiEYIyKyELDDV4lAtGd7ZRtsdhOEibNmATK6rZ3N7KlZvlC3bjHChGlljcGHOFGqLioTCB2aev7bFtJzpqJRo4H8o6NbMLiq2HitVMbLilhunAYoX6J2xx/y9bt1MlnaHUwNXAM2XjR1kMehrb6LgOg1izDSR/5XaHvxQCRRlQKKQIk5Y+ZdHhDM6hhzNqjJpxOQY/NcpxosNgFWxPus6U6bFngcgOEcP0FM3vJcHIMVMOueUEG/SxgYCi9d6LbHrtaRQ6aQfVdEpXg89g7lokbhuC00safjjCHJ/a38YdJKy1DB3bJFFXB1QJbbcMNZq/YOTX00l06GkU4d1y0+49LVYoaCerxfV8OxrIhAJj6fCQWX4p6n5vwTJXcACuCFTgmUEtDugrhivFvLpRinjvjYDiRL1hp3sWU5QhFOMGMxuQYiflNeZ5BGI/0nw8bDI47+zVfmxah8Zj0/Lcbk+khoPPfv89In16QG8ZzjybRTXRFARRjDacYTCS7jzuhihNcPwGoIOeHdoI8+XOfAfhz4biNLCsj7lSbM8pNVTVYJECTIUpSFVuYzymrgrc1RICN7nltMjJUoNdWXnH1C/YzFtSbNS72sV+XLm84WlgihI+ds5WxqvCpkZFhfMXw3oCeuFz8Xc+N/NaZb+EKNqqLSTJXvB4zyoqJkNJukLnLLhFW7XRPhmN2gp1UXnWybZaeyeHhcd1YRnV8Jpg4YlSdubKJaG0mBWd3iG2iWArY1FWpletw/aw8lJwflXUOVt0AO+1+py+suIVqYr6Y2gRGxWTKrRVucq8wJNsT+gXUFkxW4UroDrbu7WiRg6qnrCp1gqIORhlfq4rNs2IMy+VHYuDavlVy6Ljuly5x2SGaQblaZcgkUXdsyWE8kwYONhf9IHMYs6aeecLrH6FwmU8XdfYHezWxS4sFLeW0MRctHfCqnUwr9gMmI2Xrx3ZAiLLzBtJ3M7Z/mNVj1WZAcYqm2ARG/vqrBEz8yQ2vBlkmHZWIX9KDr3t+l3A7bixYf8pTxWg2UYp0WpUN1hSHXVJxfRPZoeJC/0/i64vaxDM2unxOJc9fIbpBZCI6OHKqA6jywvMshik0bdNee4JNYf5lLnUS27CTGZZ2PBQcMxHedGO2n6iYp/pKTvKrv3UCTL4T6WOZEJs0l0IXMMK0+Vtn6T6jg1WpdKyxC8H6/DQnGANX+1R7IV9QgwDTvsiTgX6XxRou06/0fTDN7RJ9cZDx/P8oCAdoaGhoaGhoaGhoaGh8dG4ugFc/YON2Pwxj/jH4/fJ5P7i/3/gV8PlkcTzuz7u/vb2e3bkhD8Dh27lA3/8u5f8Gjg+ivH7HT87PTqaZEeAqm+1FPdHt//yPb8AOFXT5+fnKXzbO352V0TVPf/PtPPjFJ5380/f9NPBqTqF/8InChU8+9GZxAK2nnQ6P86iqz/81v0Dp+WMa1nn7OUh9SBJ1TNnCi+n0/TdMiCiKtKfx8uUNv6WqnQp7PVtpFg3cvw+9SD5AP68Y7y+2u937AERVf9JqkATURv5xcVRdHEspwpMroqpAjpP/3zGl3w4IqrAuHCNmXBuuDx0hBpdHHX4v9/4rf9qte9A0p+re760oQLeKRVwjRxOd9fHMgBEZTqNRWcqVY9fJhrEB8/QCt3FQ4VmHcgWuKuVDCln4UE6R+v1+uJSGvmb35NTzhFQFdt9QLGzUHt5ls873uNn7AMxVegxPiTEwXefTaOLsx1Be4UqjvXddNeUlQBoq9AMwRXY60uB6VoQd3w6mb6XqpowcCXzQYVZlzpWe8w4omDcITicvksB5aTn0mmgXAGPpOc4Tcc3z5IPQRWf2YlvnaYvEGf8EWv8kVj8piWVKlRB+PYOeJ9XDxeXx4/IxzO37FLkwJ//cfXwLZp3mbiZz7f39+C6Pgq/7HhyD0r7rqDyABD5VbeCj5PErAt7I1xQ1M44EL6N3CepYdFiAJffkgdcft5XfQguIz0R7NSu5KI3BXLuhIPEpesFpkgvAARO/i2eIV2pS0x6vUSMlkz9uIm5uBAJgKuLizV63y+Tzt1kLe6+TO4mf2o3FxciCLz50elMZPC87tx1Ipd8PbnrTF6iRz7cT3jA/binD9DQ0NDQ0NDQ0NDQ0NDQ0NDQ0NDQ0NDQ0NDQ0NCoOP4HQmTMEI+22cEAAAAASUVORK5CYII=;" vertex="1" parent="FQCKP3OQzJxXeX6VMg1W-51">
          <mxGeometry x="10.000000000000004" y="50" width="157.82" height="89.5" as="geometry" />
        </mxCell>
        <mxCell id="FQCKP3OQzJxXeX6VMg1W-56" value="" style="shape=image;verticalLabelPosition=bottom;labelBackgroundColor=default;verticalAlign=top;aspect=fixed;imageAspect=0;image=data:image/png,iVBORw0KGgoAAAANSUhEUgAAAT4AAACfCAMAAABX0UX9AAAAw1BMVEUlJSX////5SUkAAAD/S0sAIiIjJSUMIyMhISEXJCQUJCQgJSUdHR0QIyMcJCQaGhqSNjYVFRUPDw+EMzOqOjrz8/OzPDzxR0cLCwv5+flZLCykODjx8fFaWlqLi4uXNzdvb29oLy/Dw8NBQUFwLy+srKzjRUXEPz/Ozs7ZQ0O1tbWioqLm5ua4PT2VlZUuLi5JSUnRQUF/MjJycnJCKSmOjo47KCjd3d0sLCw9KCiAgIBSKys3NzctJiZvMDBHR0djY2NI+CPzAAAN9klEQVR4nO1da0OyTBNGYTmIopCGWuYpz1lpps+dWf3/X/XuEVBYIDtIr3t9eB4hcOW6Z2dnZmcGSRIQEBAQEBAQEBAQEBAQEBAQEBAQEMg8VNNU1VP/iL8J1QBAXa93ABTMU/+WPwe1UFqO3LyiKO6ivQOCwE/BBBVXUfIYkML5rnDqX/SXYO0mlDvKYP4WnPo3/R1Ya3ePPURgRfCXEqYUYg/ytxTzNx3AJMwexE6sH2lQqESyp4zE9E0BteRGsQf5WwvxS4ZxESl8kL6r0ql/2x8AWHDoy7ti9iZCBRzyoPg1xexNgrnmCZ+YvSlgbvn0TcTsTYK54tKXzxsiepUAdcenTyi/ZACO2Yfoqxin/nWZBxjxld+ldupfl3kYS7F2fAFq3OyVxNqRhALPa0NRK6H8EsF32/JDMXsToRoR4VIqfheCv0SY5pDLXxcI9ZcEE1wqvLBV1QIFS2yex0IFq5ESzaCijCpNCQCgQRZP/TtPjbIjQ9TLoT+YwFzOXQUjRCA8NZzM27fnnYKg1+XOYLzZjAdPTl0//KtqaMDsXlTni2E+QhIxse6ivQJnaszYxUHOw/TBibhEtYySBifq7m2e50xlZbI8yxwO+SW3h2eZf61qAZPnC0MCd+cngPIgd4BeDH9oNbniWjP57bnxJ08P2cvlxrH8xcZiVuc1f52bMHu53CyWP3PHYy+vuGdlTesPUezlco/FuLs07vTNK1fnFAqUe9H0beLVX1wg/4xsaF2KZi9J/DjJQ5i+yvlkYNn3PPoGUdafB+2ST9/ifGIx8phH313s7OUkXxH+zoi+ax59DTvuPm76UP6sErBkHnu53H8h3zcA41ZsAkux9D3E0WfF0mf92u8/MeQGl77Y+2I2Mc/J8ZA3PPZqsUtHrO7Tzsbwq0c4vATxbm+J73ac0yZc+YNH30vsyhuzhalUzyj5T65x6AtH7QNQS1zZyyv/zkb1QbfjJZq9WazTEZf+cl5lC9GLx3U97p7Y7JfzKpqJjlglBAxi4lXnVrJVfgyz9xG/bnRjwi1nNXURyv0Dx7fWilF8qgG4Nt95lqsW9zeLpuWoVVc1LaOgAWAtOaG+//Ni6aJdl+W6HanU6tLsjnB3N3sN28umAXlbdS/a1dEwKmMDZxssKlLENm/R4Y/6h+DIrfvpeDy9b8lRM1N35GKr89TSZecwUgBn6245n+Sj0jTIueHi8mKrgULYV0sY9a/AdmaeeVybOdELg14uRwgJVHWTiPQWTJ47ulp21wUANMOM8HP3Rr3njPoHID/tBVYanfht3CDAm8vJUFOGtwCUDCuKODJq5+hRM4VwGsEg5ZOogLunoVRBfGmRPDt21GwhzF7qJ+GnEyjzhO3wL4yaKUSnEdykUeUx3oWbENRzIn3pVKNmCvpr1HMkxOIJrCbfu2jH5xLwkhdek0fNFnhpBPFZVBhxe+EJUakvjJop8IQvhfjFCF9SRJknfH9O/JzQ+sdwn6SH4jIJEoJ6/OSF+Dhi5sDfC0rI4YNzd8gVPqUd79zykxfiU48yB24wPned8CCqxWUvr3Tjt3L5yQvxG3iZg817jlwuYRrFFeMruwSzhT/q33Ldykc/SEwriMS9yJh/tNgtqMwhRg5itzNipS+xmLx+tMxnDHwtFJ+BhgJV/Ln7lpDFIt/xRk3SuBkDz35NYcHGWM2lhDSML4yaLZQ5+7i53EuSFiq0eeUv86QdjS+MmjFwlV+C6kPlBzz6kjPQuMrvb6k+vtuRwvznBPvStNH4wqgZQ/TikUaFq0ZkMkGq9MfjR80YihHb4ElpBBSRQQOlmmYv9wujZgxOJ/wcnXSTSAvn4CqjdFVXXxg1Y3BaBym4jbg0gj1o3YPqXeUybc3aF0bNGMrSnh3Wk9JbD8Zu5O+0KYr7lr7i7wujZgy6/DiloZfa9F3+TMjSBE2vk8Fi+al6e11+90d9/NSoWYNel987NzedvhzuVZAAS0MJGhe3WythazJy1D4a9f3zo2YOetm2y0c9BUoPMiITCX5yVAEBAQEBAQEBAQEBgb8Hvejj+10hpw4REVYyA/hau01DQzhVvbT+0PLR12X5W4NA5dkUYhA6X9g2Pax2AJSOrvozKpcI6xPxd7CFcN17+kYC9T4NCh98pbFUgshPrtZH9vlSS+QrTtVoKNz54vrj27ZfePQd9ryBz395nACqBv6mDNGXy918F39p6UMEDI8KX2WRvtDjHotP0Ic2e4/gL5P0xZd+p0cSfUqwrE25OKLNZlboe3x/f398YevIB9s+LddR8+XDsj6bnt1npYgbNfudmsuOTNPIO7LjBC+m9Cnz9Wq1atLUAz/XwER1qiDYuNksIdASQbXADqySBih9AJ7y6LdK+H5fnar4frQZbxmB674ORh80+nTd0ekRbRZXljuDzd3d3XjWD+zLOPWXHjy7GQ86gVW6KLdmY3TttCPjPEn7ZTCghUC9GfwYEEFG3yWAZp/FamXoKztUsKuMJsPhZNRe0YJUc32F0MZ9ENUdOVBVq1u9uqJ7xegUfWeFBZpXC/gFo6stvV/F91e7lgGalaurY8Q8gT56RHcCSdaX/ORbNWO2K6gHS8tqXlWe3PIz8Gov6OxhGmrDX5A8+nBSJMscIr2WDGlEJjT67+IfbuGiXZJZjhOgC21ycGEAVwm8ZxoCp7mB5tD7gsU/PKlLVdJJG1yQLb7vey3XPn11Ki44Sf6giKyFZUov7ycq3hNS5P3CAXT/IX01X6Hu00f1V17ZQvoKzeA2uqLcapJX0eDRR1XlYfsNTAtoBwo2FeUN8a9V8anhnA503B5VMn0s/x9JX6iAEReghOoSsJp0ng/ObuT09FlbX/pCCbyYsk/QV1h6qxL5P0o/ovSxf5gfoA9rfZkV+80cSacpObX7l6lHiVR+Ip+v7296/tmISqNZPcXkrWINb7JyDzj3WAKq4rL3eqC+w1z6DiZvAbrP9ER7SSkbovur++9D/376xgiequvrniBKdVt+9gTNGVDpdGymJ6FQsr5ftaeHFpNO236G7i753EOeb6CHFTNchiOICZOTEfAzsJoA/COyhewZDn3GEnq75KJFFX6E1gu7cgUMQLKR0EuQfPqUH9J9e+j5qmuKtSDJzenB6ad3Pj4+WjJaaWm+7FPZc5wfHb3MvvCpDM0bKpUfcr1eDxsu9GnYk0HVx56+Amd1gTR3QY1fOfShaAs1XC6ApmkF9iY9UuJFipjw/WzyutU2xO33r7xBXBd1qUg7ob3gSU1ECuciFov4RRx664VK342t/0c+4dR6+6WGcP2of9LrQJTRPmq47xJ7H63Lpy9kNlPVqbSxVqCl14aqeRNZK0B8Yy/KCPru/oOrgU0n7PUdAs0Mw8rflluDTaAy68YutsgnUtRmEzWK1pnP+Ly4WxBdDFxigRCdqHyCPtbC0x0i0Nn/z6T0/YBvEqZvhp88Mpf4QYdm3/NBUZtPX+/Q10ukz5u6wzVehBl9OPxJlxHFUlPTF9WDEioFRt/tt/dAZfRtNhtq0BGTOZK+vq5LofoUSN/HkfS5k8mEPiNpTxpJn/pF+prWz9OH5hv92EKWXFQBbc3WvejqZvp8E5I+TLzuINgp6MOGy5W3QPDo0z5BX7gNoJJfqz9PH/xYpwKHK2RZHQpZOig8UgdFuS4/MfoYS1j36f0Zwn1Q9x323QyYzWqBPiWmBhBhJE3+mVXsrZzkRYzsgNBXIAf05dxWly0dmgfo9/4KfV7Z4hN8WmY1D9CELBL2bOZz9JB6ZD7dje3VrGAjhxp+qNqHldD3ZNu2IyIuyOsotX3zlvUpwa4CdYWVIfAEbg5U1WQrCnH8yfIMhReuqAb8K7lwBC+EV5K4i/RL9DHxwwYKLXtuyEXdebxGqN3btDKvB0/WmacB6WMm9jTguLwj8bPpkt27v79/iYi4aH7XUuWi4OkuyEapAOZ0hpck643abRVD21FzhNFHyRxVICyVeS2qpRbWQxcB3v879HlPi7oSOHSejt8lVk82c5hoTR/fn1maO6SvzGoGrsdsZSFGzF4N/aMX89rzeZn4uQVVUiXK5bDdXvieMAsqQEXmHkRXWX8EbIAvLar8lMlW6rpUZLXfoo8ttw28eByW8TRszxoMAtIX0Wqgj7kqB2sxWl4Jyx59aonaZ+itMBqrGvRcflwtSCVxb0kg9AVjDFA3MvELeDPr39J9kD8qUqi5UbF/wAiq4AnW1TZ8+nT7wJ5hzTaDhaQc+qQSswKhr6EedGlSJngRVlX/zaqK7wsjBBoToaXFlPbewaooXeO3dJ8/Y7HwlF+DwanxA9JdetHjqUHNlWfElG4HSy42fW+pDQQNA/S19+J9mj/N8EvHfD6UOQ3QWyvGiuKuAisv4q/iSSpamU114bvRymSFLJqfo6/eayBsqMXrjPFhA+spXX4aExFr9D5otB56HZjAxhSusejKGmVFbvXoYjPuBCsu5NfZ+K4GL7z22+SYTazUXRpdN97wUX6O5zJYVYckMOLOt97um6Ve4kjx8EorTPDlW7aTUZIqo6F/SgXdEQkqu6MuidZbt2S8H3jvR52adOxpfY9VQpsd9X7ro/Uqy37pnS2/tlrv6M2T5FL2F2jdoGv79YM0Bd3Z/04EalOwyIdFDmk/A1MDu22zud0BLfC4qqatmts1KKkqudr/m1oAe6fg16223eY/DVj7A5ygAbQeTh3SeclEEdceB9U0w10QVXguJQH4/u8LigoICAgICAgICAgICAgICAgICAgICAgICPw1/A981SMA4qarNgAAAABJRU5ErkJggg==;" vertex="1" parent="FQCKP3OQzJxXeX6VMg1W-51">
          <mxGeometry x="168.91000000000003" y="64.75" width="120" height="60" as="geometry" />
        </mxCell>
        <mxCell id="FQCKP3OQzJxXeX6VMg1W-57" value="" style="shape=image;verticalLabelPosition=bottom;labelBackgroundColor=default;verticalAlign=top;aspect=fixed;imageAspect=0;image=data:image/png,iVBORw0KGgoAAAANSUhEUgAAAOEAAADhCAMAAAAJbSJIAAAAw1BMVEX///92SrwwMDArKyt0R7slJSVzRbtuPbnf398jIyNvP7koKChxQrr5+fn09PSVlZVCQkJVVVWpqalsObjQ0NDX19dcXFxubm77+f1qNbeioqIeHh7x7fiHh4eFYMP39PuMacbl3vLa0OyokNPt6PZ8Ur+xm9je1e7Tx+jr6+tMTEw3NzfFxcWBWcHMvuW2odqVdsrBsN+6urq6p9yIZMSjiNGbfs1wcHCli9KSccl/f3+/rd/IueNmLrbQw+cXFxcJCQk5bIJ/AAAP60lEQVR4nO1dCVPqzBIlMiQwDIoGgQiyhx0EBRTl0/v/f9XLMj1ZCNkgIbzKqbpVV8jSJ9PT2/SETCZFihQpUqRIkSJFihQpUqRIkSJFihQpUsSNZvf3563f7w8/DqPmtYW5OOq94V7GAiYqsCBwm36vfm2hLojuF4cJjzgTEMFyv3ttwS6E5UIiFnaMpLQfXVu4C+B3ITrR08GLu1sfx+5eOM1PBcEf15bxLLxh3pWfCqEzuLaYodHcCPaph3jFlvJWo8OT3rUlDYkesQwgIgKRN7uvYX+7WiDB9B2Sfq4taygczDNQobf4OnTb9Lv6YLnjsfG19HZVUcPhQzLxE7jhyO7gB288MSbj8CpCnoMP0eAnygfH+KW9ldgwC7emqD8GQbz4PXnYmGPTUTp9VBKxZAR54jrFmh2mqeIt+f4u8xKk5SF3fQUGB8m3E4rXOZheeNX2PHoPo0i2Mch2GexAZsGXzAuYi+KtTMUD6Cje+Tq+CUOOZO8RTwKaiArMb3xOrBFMRXwbXhF0FCHfEfUbUBRvIQgfQSwjHPyftKDDTvzp9XURStguPJb/kj+IY/D1QiCrAap9Ax6jhYLrqIIBPBg+6XXGHvUUqBXwxD4dxMQXNXbUe4tB0/YBDvloYsaAEuT3gU/d0kEUk11g/KEjIYwDnwpun/QjkOty6KDwqkZtFFokOcUAi4jXIU6G8U90nvhBhcRhImiwNYm2phtd0fhVqLOpmvKdywp1SbRp7CWEy/NAA8TkTsRf4SwRR2Li/cUXCesMdYCdChbwxQlZn0g4bOlzr8cLfGKjbzCGobXsjSQ8cIOomw9bbVnCBS4q1gVBXTbqhL0AmBqc1DSY5hXhA8uBhLWVRZxUY7o5aWjah11LXqzWXtnt4LCVBYJC+tPI0aam9DivWHMCjxDiBTT09JTt3nDxX0LXoQboRORsalYQNn6sUC947hULutRZ8DY7sTet9XJkcR3hLgLqLJBsnW0f1m4F/HUl8S4AulyBFhZFbNrbadC+o2C/2qkdfL1B0ktrZqypO2xZrMkH5uwUVfA8TwjGAuZau+FvknNeEygXtLF8uvdqGUK82oWy+rkBlhBVdswf1mX3pi9GE4t4O05uYqjBkWHbu+uLgRf4ZJN0ZuhrCA2S4mKYXHV1ZAihnG8gTFZJbXNztjR9YudABEExoso/QnjkxJ8XWskMapy9RdfenkiG456K5c9wu2rJiiHlj2gisZXEcXT2+EZjBhXemsA3B+O3lSwctaEiaZW8+Xgiamtah0hyELzdXa+wYCPJk37SOjMg8ia2yLsrGbKj/06lfvXxVrSRxFzCpuPJ7Km5oaLzWHZVveWeWJr6kbhL1DCezoAV0TlBFFBn7eXPu0MOmzkSOVEW53QVQ90R1Ov6qi81P2Sz9UVCAtZp2qB5q3MrUTrqa2LOR8Srt9h0OXjKwzOL+gz1ITa5GNK6bg65FAgwGoN6nW8eBjtTGzyPrlldHIpGiRrcxUWa08ayoaoIX8/ebNUqNSvgUnd2mbWjet8YRoSv5Rn1DmZmPC9kagBjY0fKtUaxg62mBWJv7kLXr++Z40DCNSiyBm2OGrsuXVlxij3DYWhQJPFH4qzJnhOW9CM6cUI1mzjjwEIcFHtPX589Xp4HDdrS+HPjemYgjNn+TD7mhdM12zNCjIQQWhXwBR93l+0cIuGaWEJixEYQd4xwug0tlMHVdPy1IETeOiRXXZZviDHGqG1WBsUrc75AF0kDN/2MWqLKAxGn8kXPoBhfcMNKE2RvSYhgJR4HM3xrI/flHTaxwVUVPxRXOXUMjee8teyUadPNISTQxolfY6ObOlDHKv4GFElMK1dsXxNC9mf6BZstAkTfAwtBx359pjMx6emQ7XE5UkbogxUC2JqtraTq0PjHlj/i6bWBVmfHfnzog5V9X64tcTYIx4PIbHfAPQDh0HfbGwHbulic44lfe83YMTkBvYmjhbgJGw6cd0TCt74bm96O1lCdkpM67MUJov8h8eberf4RdCYOj1c2nJTjlz3Y0JL7BWw4OBFDwYqhb9/1dszQMcHswFaOqLNhqMZIp2oVMMZ4mPHFcXk8Dx07hmBTXORd0pDIn2wCZd0XaCHL+w/PIHxwbEudIyIYRCnaNKruvWeAtV+oPRdY8qxp2JsZ0Imuoh60LkbbFEaV1K0d39adgL3qnV1bTCOdKliAr71g+ukAavlc3d3aOrNIy2M+Wv2FcHLQ1+ATI+0/1RcnEOc6Lgvrqq5np1fLdLxLFb9J1TnS7swm56mkiu2w23+P0tSvqd7kuhJzdo+uD9C6tnsSP7RHKe4isXAFodbQVTfW5/ZZ+wA1NO59yi1764F7BfUHopWF1/zq0oaWKN9MAJ7A7VG3jzu9JBeRmmBKvas7MNpRtrrrptQ9NhzY+bkv1qxYmOd9e+o6o3wxgZ7Du+ehzWOGLmHIAYbQz3s/aLLskEBeDHrN12MRdHGkpcLJY01v0fBx+7eEMLSXJTj+tI9jIZuvraPUmMbAsON6UM8WhrkkPGzpBfvycYcYGOrz0KPjvmONpU8/kF/IK3w6gBjGsE9tqXuk2bQ2/vCnFJC98MPv9vYY5iG9hX1PhR0j3hjF069FHBjvk/JZ6Y3BltKE3PORDzqizhGJi1Mj2GQviPK9akztUpQMad3SR9V+vJFEUZQ2J9OsNiPoe9EYoqUot+zTeMVfEtoddU/P16bxuj3Rb5WX1YWjrGPQqDrg4tIxBgZBf45CBU2/o03y6VwPtrh0jJFBkPjuEqvTxxvti4ig9hdkcekYRgMCx/tPhaCQGe0OzOYl3l7RN736M0CLBQQSKNpyItxGCL1CMmiZWtY4/4YfFlLPb350B6hp6GLJ0hQNIC6AxYL4IOqyfp2t5IVajm2b+yoRCkCQra9dqqnM+05hNrwukSmz4u1t/W6A9xlwou+VybBosj6MwB083Y75DfRkEcAeG5lyJ+hdg4OVqE9Xpx3R7ovmrErYBbBV7Racenas4QPGuoQQoPmjvuYsZVQpSMxQZ68bjqd3n70bkRNWfsdhvbBspOADee32JvzMCIc+Gw0i+7Go6vhZqlPCJkj+Y4R4fGxvU2bPlEPS1vNtF0Ni/QkIngRStQ+jAfMC2wB8ot0yjD7Bbr+mMljvRdv+PLFjOb69/3Ab0PHCaGSVY2yibS7Mez7Ifu0kZHv01kH2XXcYWYv3XZlgtDo4y15fdozhJ4tYu4TbG7Nl5DFZ7Na9LojQ7PYO2w2Hj3ZO8pJtV+FYi+F4jDbDno1Au7eVTRfw99aQS2JrnVyIx4IoSQKPeEGSRAE7/HoOwTvbWA9ZBzAigoT2w/VS3UT7e/jYypJgugQK6HwvggM66oRxA8Jka5uw7ZWt04RXfwtKBcbWradYvsqeksHO5WeAbOAFbmifqz3Z5yPixavtmO25/dSRAUSkzvJIxnpfxH7O5qX9NXc9/7YEx5+rMtHDwuLN2R/U1wvPs4nQufY+0pH29qoTj58IXOfDbQRGfReSitHivpKwa739+7UQbG8OQIrREFFnOPb0YfXRsOPw3gH1dSfy9jcxW53rg6X643iiqFlCUcRyp//j/zcAm9p7B0TVhqpQriAsdj+jxNBjqA9GvfF43BsNwgTI7e54eVj//KwPy7FLsTxFihQpUqT4f8H7y5OGa8vhgNLTiwlP7/N8qMvUGjkFhVnpwuJdAPfTRsGERiM3+3y/D3yZWvFOQbacRIaP2TsrssVG+SmopDfFUJW0UQ2orLfG8O6uOJsEuswtMMwWFWQZ3Vw10GVugGH28bNWq1XLOeDYeA9ymRtgmNNcWen+fVqkeloLcpkbYFgAZz0BtZ0FMTa3xDAzh0GsBLjMTTG8n1K9nbOD8u8P39+vL3O7fb2fP3zWvh8qJTPD+4oOUIE8/bt0P6f/MwIK+7HxMCxVrQxL79Vso6DGZI3Zt1mU0lO5UVAMcEHxnt8Gw8q/hoLCv1d62Ou/hhIqNf49Z2raN42/xwm7+Z/2Se45Xob0E6ql+WqjyCKBwt0LO3NSbYDdLc7Kd4zhc06/4AM97qGgP7B8ZlKm9wLyD40QZvt8hvkZlVsbr/kd46dL8w0Ep7k7O5wZ5oBh5r1hmeJ5euvvTJQ4ZviiS5TVXP6c+sdsMVfU/9fQJS89AkEjSvBkmPnWx7P4qH0Dkzd4oH8WwwoMlvrBZEbnZPnz+7Osi9rQBuABhiM7fZwVIS7yYnhP9VS7+PzPPKCRM1Q8filTKuUf7uigTdUn+wnSqrZh8q39VVQHd0KfQ65auS9N5o9Ffwwzc30Qs0rYW9JtNjsuaobZqRq0VWcFKvqf+mSf9b/AMpR0tWoosr5QSalZnOj215th5pXanW96ieJjtDpqi7zZlMr+aebtVReO5Rl6MNBQ7KnNo2Q+iz4Zgre9e9cVthClo7AyNCFbKGuSl3QhckyPJpqZVSLWPD2QDUDNL8NMhVooXa8bL5mo4cRw+qAPGrXm2eorgP6tmFhdanBsARgyG6XRDJajncmQqWgR5K7QSZnNAejIZZ6o1Gx0AzCkmqEdHyi6P5fhrFy+owqUq+rKNwezY1PiRyY1c6IBGGae2ZUKcVQfzfnhPbUsd4WahWHWikKVSc3CrSAM84aS1mLIRawev0pDNM0jMy2dVq2YnzeGU2PmN2IYRCtDMHRZzUHkjWDAjAyL7HLMEgZg+GKyNHfZYAWv8xlmvmEqqtEwjbEMi8nwHt6W0llIA73cZ9QE7Qwn8IC1mIb69ePKIq0DZKswj3x7fPosip/02tFmTg4MmQ5lpyWW7ZhDx2ctBoFML0sjksnUiNr0sMCoZFkZ0utnJxChlqPWUztDFlUVlDl2T1MLFnnMazk9e9LHTPHYml/JT02RdwYyaD0ueqLpps6Q2lH1IvpgOs2BaBlm3pkTzBsjWqg9VSqVp1pRkaqg6hXksrnq0/z9dUZNsM6QzuXs7EU5pQpqrzOsGinhM32UpnpQPAxpAqEbgVIVokglAVb+MZFKMNTZXDHHkn2dIc37lAOLRVZg1hk+mcsWtLyh52kxMsxUzFXvfNlaxFAl+nsx09A/M2tpppqzfJdlDMH96FO0BHMg2gzxmCGkcIqaKQ83/2gL3XJ3uvV7Nbm13HQ+MzHMz0yPpVDV76AyBPWgZhVU/S/SDMqB4QQEbKhG4P41a6iaopOfIM5DARS1UZ3o4wYV4UoZHkux8V3SkwmFIegoGzM62MXHKIO3+2lOCzbNiVplWtQj0D/NCDw/lHP6QnGx/GoqqswfC8rHjdyjup46V3x4tgir3JPXO21FuVibq5ZWvcVf/jmnXbbwyfjk6c3/IrWneQrzdC/Bh9RX3T+/a4v8eatNKFWelE+fdYEn2gnsu8lc+e6d5vXaV6XJc956jOlGUTBLkSJFihQpUqRIkSJFihQpUqRIkSJFihQpUlwZ/wMcsEpW6q+X4QAAAABJRU5ErkJggg==;" vertex="1" parent="FQCKP3OQzJxXeX6VMg1W-51">
          <mxGeometry x="90.73" y="150" width="120.5" height="120.5" as="geometry" />
        </mxCell>
        <mxCell id="FQCKP3OQzJxXeX6VMg1W-58" style="edgeStyle=orthogonalEdgeStyle;rounded=0;orthogonalLoop=1;jettySize=auto;html=1;exitX=1;exitY=0.5;exitDx=0;exitDy=0;entryX=0;entryY=0.25;entryDx=0;entryDy=0;" edge="1" parent="1" source="FQCKP3OQzJxXeX6VMg1W-22" target="FQCKP3OQzJxXeX6VMg1W-51">
          <mxGeometry relative="1" as="geometry" />
        </mxCell>
        <mxCell id="FQCKP3OQzJxXeX6VMg1W-59" style="edgeStyle=orthogonalEdgeStyle;rounded=0;orthogonalLoop=1;jettySize=auto;html=1;exitX=0.5;exitY=1;exitDx=0;exitDy=0;entryX=0.25;entryY=1;entryDx=0;entryDy=0;" edge="1" parent="1" source="FQCKP3OQzJxXeX6VMg1W-39" target="FQCKP3OQzJxXeX6VMg1W-51">
          <mxGeometry relative="1" as="geometry" />
        </mxCell>
        <mxCell id="FQCKP3OQzJxXeX6VMg1W-60" style="edgeStyle=orthogonalEdgeStyle;rounded=0;orthogonalLoop=1;jettySize=auto;html=1;exitX=0.5;exitY=1;exitDx=0;exitDy=0;entryX=0.5;entryY=0;entryDx=0;entryDy=0;" edge="1" parent="1" source="FQCKP3OQzJxXeX6VMg1W-36" target="FQCKP3OQzJxXeX6VMg1W-51">
          <mxGeometry relative="1" as="geometry" />
        </mxCell>
      </root>
    </mxGraphModel>
  </diagram>
</mxfile>
